<svg xmlns="http://www.w3.org/2000/svg" viewBox="0 0 68.16 63.49"><defs><style>.cls-1{fill:#1f845b;}</style></defs><title>Outline</title><g id="Capa_2" data-name="Capa 2"><g id="home"><g id="Outline"><path class="cls-1" d="M61.77,35l-8.11-1.52.27-.92c.28-1,.53-1.94.74-2.92a1.1,1.1,0,0,0,1-1.05,7,7,0,0,0-.4-2.31c.11-.79.2-1.59.26-2.38v-.07c0-.18,0-.35,0-.53h.1a4.4,4.4,0,0,0,4.54-4.23,4.4,4.4,0,0,0-4.54-4.24s0-5.59,0-5.65h0a5.76,5.76,0,0,0-.2-1.3v0h0a7.86,7.86,0,0,0-7.73-5.7H44.81A8.4,8.4,0,0,1,40.36.86a5.76,5.76,0,0,0-7.63,1.42,4.88,4.88,0,0,0-.92,2.84v.34a4.91,4.91,0,0,0,1.35,3.36A7,7,0,0,0,33,10.58v4.23A4.7,4.7,0,0,0,29.82,16,30.81,30.81,0,0,0,28.43.73,1.16,1.16,0,0,0,27,.05a1.14,1.14,0,0,0-.72.65l-7,18.2L12.35.7A1.13,1.13,0,0,0,11.28,0h0A1.14,1.14,0,0,0,10.2.73a30.94,30.94,0,0,0-.12,20.33L14,32.7l-5.37,14a9.75,9.75,0,0,0-5.46,2A8.11,8.11,0,0,0,.06,54.19h0A7.82,7.82,0,0,0,2,60.33a9.41,9.41,0,0,0,6.36,3.12,7.32,7.32,0,0,0,.81,0,9.85,9.85,0,0,0,6.06-2.09,7.85,7.85,0,0,0-.11-12.73L17.62,43a8.86,8.86,0,0,1,1.7-2.53A9.4,9.4,0,0,1,20.47,42c0,.79,0,17.25,0,17.25A4.4,4.4,0,0,0,25,63.49h6.82a1.21,1.21,0,0,0,.38-.06l12.12-4,12.12,4a1.19,1.19,0,0,0,.37.06h6.82a4.4,4.4,0,0,0,4.54-4.23v-17A7.57,7.57,0,0,0,61.77,35Zm-6.1-18a2.12,2.12,0,1,1,0,4.23ZM51.12,27.51a5.82,5.82,0,0,1-3.46-1.1,5.08,5.08,0,0,0-3-1H44a5.11,5.11,0,0,0-3,1,5.78,5.78,0,0,1-3.46,1.1H35.33a5.61,5.61,0,0,1,5.57-4.23h6.82a5.6,5.6,0,0,1,5.56,4.23Zm1.23,2.12c-.18.79-1.41,5.07-1.41,5.07A3.4,3.4,0,0,1,47.65,37H41a3.41,3.41,0,0,1-3.29-2.34s-1.22-4.28-1.4-5.07h1.22a8.27,8.27,0,0,0,4.86-1.55A2.78,2.78,0,0,1,44,27.51h.7a2.81,2.81,0,0,1,1.61.57,8.22,8.22,0,0,0,4.85,1.55ZM43.23,15.54l-2,5.62H40.9a8.5,8.5,0,0,0-3.23.64,1.61,1.61,0,0,1-.57-.56l-1.75-5.15A26.17,26.17,0,0,0,39,10.58h10.7a26.21,26.21,0,0,0,3.62,5.53l-1.66,5.4a1.65,1.65,0,0,1-.44.39,8.53,8.53,0,0,0-3.46-.74H43.61l1.77-4.95Zm-8-2.93v-2c0-.13,0-.25,0-.38a6,6,0,0,0,1.24.32A23.07,23.07,0,0,1,35.22,12.61ZM35.68,23l-.36.31c0-.27,0-.53,0-.79A3.72,3.72,0,0,0,35.68,23Zm17.43.15.21-.23,0,.39-.18-.16Zm-.94-12.56H53.4v2C53,12,52.55,11.28,52.17,10.58ZM34.08,5.12a3.11,3.11,0,0,1,3.22-3,3.41,3.41,0,0,1,1.8.5,10.84,10.84,0,0,0,5.71,1.61h2.91a5.61,5.61,0,0,1,5.56,4.24h-16a3.14,3.14,0,0,1-3.23-3ZM33,16.93v4.23h0a2.12,2.12,0,1,1,0-4.23Zm-4.4,4.13c.05-.16.1-.33.16-.49A4.55,4.55,0,0,0,33,23.28H33c0,.18.2,2.19.31,3a6.72,6.72,0,0,0-.4,2.31,1.09,1.09,0,0,0,1,1.05c.22,1,1,3.84,1,3.84L26.84,35a9.21,9.21,0,0,0-1.25.33l-1-2.61Zm-16.3-.64A28.88,28.88,0,0,1,11.43,4.6l6.68,17.45L15.3,29.4Zm3.27,21.81-2.83,6.39a1,1,0,0,0,.43,1.29,6.1,6.1,0,0,1,3,5.62,6,6,0,0,1-2.38,4.26,7.49,7.49,0,0,1-5.19,1.56A7.14,7.14,0,0,1,3.77,59a5.82,5.82,0,0,1-1.46-4.57c.39-3.23,3.52-5.69,7.12-5.58a1.15,1.15,0,0,0,1.11-.71L27.2,4.59a28.82,28.82,0,0,1-.82,15.83L20.87,36.65a11.62,11.62,0,0,0-5.35,5.58Zm7.09-1A10.84,10.84,0,0,0,21,39.08a10.69,10.69,0,0,1,1.32-.75,1.07,1.07,0,0,0,.57-.63L23.46,36l3.69,9.65-2.35.37-1.69-3.83c-.14-.33-.31-.65-.48-1l0,0Zm.12,7.27,5.49-.85,6.49,3a1.24,1.24,0,0,0,.43.11l10.16.67a5.63,5.63,0,0,0-1.15,1.69l-1.89-.35-.45,2.07,1.9.36a5.39,5.39,0,0,0,.33,1.9L35.6,54.36l-.17,0-7.95-1.39a1.26,1.26,0,0,0-.64,0l-4.12,1.54c0-1.86,0-4,0-6ZM31.6,55.8a2.4,2.4,0,0,1-4.51-.48s0-.1,0-.15l.3-.11Zm-1.55,5.55-.62,0a7,7,0,0,1-6.7-4.57L24.91,56A4.53,4.53,0,0,0,29.4,59.3l.5,0a4.48,4.48,0,0,0,4-3.08l1.07.18,1.18.39A6.76,6.76,0,0,1,30.05,61.35Zm7.2-1.82a8,8,0,0,0,1-2.06l2.63.87Zm28.64-.27a2.2,2.2,0,0,1-2.27,2.11H57l-8-2.61h0l-.12,0-.8-.27A3.55,3.55,0,0,1,46,55.65l4.38.82L50,58.14l2.23.41.36-1.67,1.85.35a3.09,3.09,0,0,0,3.61,2.34,2.92,2.92,0,0,0,2.52-3.36,3.19,3.19,0,0,0-5.68-1.05l-1.86-.35.36-1.67-2.23-.41-.35,1.66-4.38-.81a3.83,3.83,0,0,1,3.08-1.83l16.36,1.08ZM56.7,56.57a.85.85,0,0,1,1-.61.77.77,0,0,1,.66.91.84.84,0,0,1-1,.62h0A.79.79,0,0,1,56.7,56.57Zm9.19-5.86L55.34,50l5-2.35,5.5.85Zm0-4.34-5.49-.86a1.29,1.29,0,0,0-.7.1L56.8,47V43.38H54.53V48l-1.42.66-11.81.4-5.78-.39L33,47.49V43.38H30.67v3l-1-.46L26.36,37.3a7.06,7.06,0,0,1,.93-.25l8.28-1.54A5.65,5.65,0,0,0,41,39.15h6.69a5.66,5.66,0,0,0,5.4-3.64l8.28,1.54a5.41,5.41,0,0,1,4.56,5.19Z"/><path class="cls-1" d="M9.72,50.92a4.53,4.53,0,0,0-5.07,3.72A3.92,3.92,0,0,0,5.6,57.7a4.77,4.77,0,0,0,3.12,1.58l.5,0a4.47,4.47,0,0,0,4.57-3.74,3.92,3.92,0,0,0-.95-3.06A4.75,4.75,0,0,0,9.72,50.92Zm1.81,4.4A2.27,2.27,0,0,1,9,57.17a2.36,2.36,0,0,1-1.58-.8,1.88,1.88,0,0,1-.47-1.49h0A2.27,2.27,0,0,1,9.48,53a2.36,2.36,0,0,1,1.58.8,1.93,1.93,0,0,1,.48,1.49Z"/><rect class="cls-1" x="18.18" y="31.74" width="2.27" height="2.12"/><ellipse class="cls-1" cx="39.19" cy="17.46" rx="1.7" ry="1.59"/><ellipse class="cls-1" cx="49.42" cy="17.46" rx="1.7" ry="1.59"/></g></g></g></svg>