<svg width="50" height="50" viewBox="0 0 50 50" fill="none" xmlns="http://www.w3.org/2000/svg">
<path d="M39.9424 35.5258C40.4813 35.5258 40.9181 35.0886 40.9181 34.5493C40.9181 34.01 40.4813 33.5728 39.9424 33.5728C39.4036 33.5728 38.9668 34.01 38.9668 34.5493C38.9668 35.0886 39.4036 35.5258 39.9424 35.5258Z" fill="#2BC48A"/>
<path d="M49.2441 9.38811C48.7591 8.2217 48.0606 7.17189 47.1901 6.30107C46.2998 5.41576 45.262 4.71846 44.1312 4.24567C42.9421 3.73024 41.6723 3.46296 40.39 3.45816V3.45816C38.8037 3.45144 37.2382 3.84529 35.8199 4.60792C34.5317 3.13259 32.9717 1.96114 31.2391 1.16801C29.5064 0.374894 27.6389 -0.022537 25.7555 0.00098644C24.699 -0.000489864 23.6458 0.126318 22.6158 0.378991C21.6254 0.619544 20.6633 0.978802 19.7476 1.45C18.8542 1.91355 18.0126 2.48419 17.2388 3.15103C16.4798 3.79272 15.7907 4.5245 15.1849 5.33243C14.3846 4.7606 13.5093 4.32 12.5881 4.02516C11.6228 3.70929 10.6189 3.55003 9.60981 3.55266V3.55266C8.32753 3.55823 7.05794 3.82548 5.86865 4.34017C4.74591 4.78259 3.7107 5.44778 2.81704 6.30107C1.93448 7.16747 1.22562 8.21785 0.733726 9.38811C0.242772 10.5643 -0.0073789 11.8399 0.000165718 13.1288C0.00591219 14.3725 0.245354 15.6022 0.704157 16.7443C1.16296 17.8863 1.83169 18.9173 2.67033 19.7754C3.52099 20.6562 4.51572 21.361 5.60457 21.8544C6.73702 22.3815 7.95092 22.6779 9.18434 22.7285L11.0769 49.0865C11.0852 49.212 11.1167 49.3344 11.1696 49.4467C11.2225 49.5589 11.2957 49.6587 11.385 49.7401C11.5694 49.908 11.8034 50.0002 12.0452 50H38.8789C39.123 50.0006 39.3594 49.9086 39.5464 49.7401C39.7218 49.5714 39.8318 49.3381 39.8545 49.0865L40.5881 39.0064C40.5976 38.8771 40.5816 38.7472 40.5411 38.6251C40.5007 38.503 40.4367 38.3914 40.3533 38.2976C40.1798 38.0966 39.9406 37.9752 39.6858 37.959H39.6124C39.3745 37.9515 39.1427 38.0406 38.9633 38.2085C38.7838 38.3763 38.6699 38.6106 38.6441 38.8646V38.8646L38.27 44.0385H32.4529L32.6729 40.8098C32.6788 40.6771 32.6601 40.5445 32.6177 40.4197C32.5754 40.295 32.5103 40.1805 32.4263 40.083C32.3424 39.9855 32.2411 39.9069 32.1285 39.8519C32.016 39.7968 31.8943 39.7664 31.7707 39.7624C31.521 39.7359 31.2716 39.816 31.0766 39.9856C30.8816 40.1551 30.7567 40.4003 30.729 40.668L30.4943 44.0385H20.4078L20.1731 40.668C20.1453 40.4003 20.0204 40.1551 19.8255 39.9856C19.6305 39.816 19.3811 39.7359 19.1314 39.7624C19.0078 39.7664 18.8861 39.7968 18.7735 39.8519C18.661 39.9069 18.5597 39.9855 18.4757 40.083C18.3917 40.1805 18.3267 40.295 18.2843 40.4197C18.242 40.5445 18.2232 40.6771 18.2291 40.8098L18.4492 44.0385H12.6541L11.1209 22.6025C12.1375 22.4252 13.1254 22.0937 14.0552 21.6181C14.1674 21.5655 14.2682 21.4883 14.3511 21.3915C14.4339 21.2946 14.4971 21.1803 14.5364 21.0558C14.5758 20.9312 14.5905 20.7993 14.5796 20.6683C14.5688 20.5373 14.5325 20.4102 14.4733 20.2951C14.3417 20.063 14.1344 19.8917 13.8918 19.8146C13.6491 19.7374 13.3883 19.7599 13.1602 19.8777C12.1864 20.3876 11.1306 20.6923 10.0499 20.7755H9.60981C7.6051 20.7933 5.66934 19.9908 4.19613 18.5311C3.48943 17.8487 2.92432 17.0144 2.53748 16.0824C2.15065 15.1503 1.95074 14.1413 1.95074 13.1209C1.95074 12.1005 2.15065 11.0915 2.53748 10.1594C2.92432 9.22738 3.48943 8.39308 4.19613 7.71071C5.67607 6.26819 7.61107 5.48286 9.60981 5.51356C11.2266 5.50482 12.8076 6.0239 14.1432 7.00195C13.8209 7.57073 13.546 8.16893 13.3216 8.7896C13.2869 8.91213 13.2754 9.04086 13.2877 9.16824C13.3001 9.29562 13.336 9.41906 13.3934 9.53132C13.4508 9.64358 13.5286 9.74238 13.622 9.82192C13.7155 9.90146 13.8229 9.96013 13.9378 9.99449C14.0416 10.0338 14.1506 10.0551 14.2606 10.0575C14.4582 10.0619 14.6524 10.0017 14.8174 9.88499C14.9825 9.76827 15.1106 9.60049 15.1849 9.40385C15.525 8.61082 15.9046 7.83795 16.3219 7.08858C17.3913 5.47867 18.808 4.17073 20.4508 3.27657C22.0936 2.38241 23.9137 1.92862 25.7555 1.95401C27.4706 1.9311 29.1686 2.32347 30.723 3.10197C32.2775 3.88046 33.6485 5.02507 34.7342 6.45069C35.3246 7.36345 35.8518 8.32154 36.3114 9.31723C36.3872 9.51049 36.5149 9.67513 36.6782 9.79014C36.8415 9.90516 37.033 9.96533 37.2284 9.96299C37.3408 9.96126 37.4523 9.93998 37.5585 9.89999C37.6741 9.86259 37.7815 9.80045 37.8741 9.71732C37.9668 9.63419 38.0429 9.53178 38.0977 9.41626C38.1525 9.30074 38.185 9.17451 38.1932 9.04515C38.2014 8.9158 38.1851 8.78601 38.1453 8.6636C37.8377 7.83141 37.444 7.03894 36.9716 6.30107C38.0438 5.77352 39.2106 5.50471 40.39 5.51356C42.3897 5.48501 44.3249 6.2732 45.8037 7.71858C46.5088 8.40227 47.0728 9.23685 47.4594 10.1686C47.846 11.1004 48.0466 12.1087 48.0484 13.1288C48.0484 17.2002 44.8721 20.555 40.8081 20.7755H40.346C39.0485 20.7724 37.7724 20.4204 36.6342 19.7517C36.4089 19.6228 36.1467 19.5893 35.8995 19.6578C35.6523 19.7263 35.4381 19.8919 35.2991 20.1219C35.237 20.2339 35.1971 20.3585 35.182 20.4878C35.1669 20.6171 35.1769 20.7484 35.2113 20.8734C35.2458 20.9984 35.3039 21.1144 35.3822 21.2141C35.4604 21.3138 35.557 21.3951 35.6659 21.4528C36.9505 22.1923 38.3699 22.6223 39.8252 22.7128L39.297 30.0917C39.2921 30.2244 39.3118 30.3568 39.3551 30.4811C39.3983 30.6055 39.4642 30.7194 39.5489 30.8161C39.6335 30.9129 39.7353 30.9906 39.8482 31.0447C39.9612 31.0988 40.083 31.1282 40.2066 31.1313H40.2726C40.5113 31.1389 40.744 31.0501 40.9247 30.8824C41.1053 30.7147 41.2208 30.4803 41.2483 30.2256L41.8131 22.6419C44.0534 22.3317 46.1257 21.2026 47.6816 19.4446C48.4051 18.5951 48.9769 17.6101 49.3688 16.5387C49.7859 15.4494 50.0002 14.2829 49.9996 13.1052C50.0109 11.8159 49.7606 10.5394 49.2661 9.36448L49.2441 9.38811ZM38.1453 45.9916L37.9986 48.0391H12.9402L12.7935 45.9837L38.1453 45.9916Z" fill="#2BC48A"/>
</svg>
