<svg xmlns="http://www.w3.org/2000/svg" viewBox="0 0 68.16 63.49"><defs><style>.cls-1{fill:#1f845b;}</style></defs><title>Recurso 15</title><g id="Capa_2" data-name="Capa 2"><g id="home"><ellipse class="cls-1" cx="54.45" cy="43.87" rx="1.33" ry="1.24"/><path class="cls-1" d="M67.13,11.92A12.1,12.1,0,0,0,64.33,8a13.17,13.17,0,0,0-4.17-2.61,13.75,13.75,0,0,0-5.1-1h0a13.79,13.79,0,0,0-6.23,1.46A18.51,18.51,0,0,0,35.11,0a19.1,19.1,0,0,0-4.28.48,18.48,18.48,0,0,0-3.91,1.36A17.92,17.92,0,0,0,23.5,4a17.47,17.47,0,0,0-2.8,2.77,13.19,13.19,0,0,0-3.54-1.66,13.81,13.81,0,0,0-4.06-.6h0a13.79,13.79,0,0,0-5.1,1A13,13,0,0,0,3.84,8,12,12,0,0,0,1,11.92a11.44,11.44,0,0,0-1,4.75,11.74,11.74,0,0,0,3.64,8.44,13.1,13.1,0,0,0,4,2.64,13.57,13.57,0,0,0,4.88,1.11l2.58,33.47a1.2,1.2,0,0,0,.42.83,1.39,1.39,0,0,0,.9.33H53a1.41,1.41,0,0,0,.91-.33,1.28,1.28,0,0,0,.42-.83l1-12.8a1.17,1.17,0,0,0-.32-.9,1.35,1.35,0,0,0-.91-.43H54a1.29,1.29,0,0,0-1.32,1.15h0l-.51,6.57H44.24l.3-4.1a1.27,1.27,0,0,0-1.23-1.33,1.3,1.3,0,0,0-1.42,1.15l-.32,4.28H27.82l-.32-4.28a1.3,1.3,0,0,0-1.42-1.15,1.27,1.27,0,0,0-1.23,1.33l.3,4.1h-7.9L15.16,28.7a14.83,14.83,0,0,0,4-1.25,1.2,1.2,0,0,0,.57-1.68,1.39,1.39,0,0,0-1.79-.53,11.56,11.56,0,0,1-4.24,1.14H13.1a10.75,10.75,0,0,1-7.38-2.85,9.24,9.24,0,0,1,0-13.74A10.75,10.75,0,0,1,13.1,7a10.87,10.87,0,0,1,6.18,1.89,14.37,14.37,0,0,0-1.12,2.27A1.22,1.22,0,0,0,19,12.69a1.41,1.41,0,0,0,.44.08,1.33,1.33,0,0,0,1.26-.83A31,31,0,0,1,22.25,9,15.55,15.55,0,0,1,35.11,2.48,15.56,15.56,0,0,1,47.35,8.19a28.81,28.81,0,0,1,2.15,3.64,1.34,1.34,0,0,0,1.25.82,1.42,1.42,0,0,0,.45-.08A1.22,1.22,0,0,0,52,11a15.19,15.19,0,0,0-1.6-3,11,11,0,0,1,4.66-1A10.75,10.75,0,0,1,62.44,9.8a9.28,9.28,0,0,1,3.06,6.87c0,5.17-4.33,9.43-9.87,9.71H55a10.59,10.59,0,0,1-5.06-1.3,1.39,1.39,0,0,0-1.82.47,1.2,1.2,0,0,0,.5,1.69,13.67,13.67,0,0,0,5.67,1.6l-.72,9.37a1.27,1.27,0,0,0,1.24,1.32h.09a1.3,1.3,0,0,0,1.33-1.15L57,28.75a13.4,13.4,0,0,0,8-4.06A11.93,11.93,0,0,0,67.3,21a11.45,11.45,0,0,0,.86-4.36,11.28,11.28,0,0,0-1-4.75ZM52,58.4,51.8,61H17.64l-.2-2.61Z"/></g></g></svg>