<svg width="50" height="50" viewBox="0 0 50 50" fill="none" xmlns="http://www.w3.org/2000/svg">
<path d="M44.1668 23.3955V22.4997C44.1668 20.0686 43.201 17.737 41.482 16.018C39.7629 14.2989 37.4314 13.3332 35.0002 13.3332C32.5691 13.3332 30.2376 14.2989 28.5185 16.018C26.7994 17.737 25.8337 20.0686 25.8337 22.4997V25.833H22.5004C22.2794 25.833 22.0674 25.9208 21.9111 26.0771C21.7549 26.2334 21.6671 26.4453 21.6671 26.6663V29.9996C21.6671 30.2206 21.7549 30.4326 21.9111 30.5889C22.0674 30.7451 22.2794 30.8329 22.5004 30.8329H22.5837L23.3729 38.3328H20.0004V2.49997C20.0004 1.83694 19.737 1.20106 19.2682 0.732224C18.7994 0.263389 18.1635 0 17.5005 0C16.8374 0 16.2015 0.263389 15.7327 0.732224C15.2639 1.20106 15.0005 1.83694 15.0005 2.49997L15.0005 38.3328H6.66725C6.22539 38.3334 5.80178 38.5091 5.48934 38.8216C5.17689 39.134 5.00113 39.5576 5.00061 39.9995V42.3969L3.35886 48.964C3.32815 49.0868 3.32584 49.2151 3.35212 49.3389C3.37839 49.4628 3.43255 49.5791 3.51048 49.6789C3.58841 49.7787 3.68807 49.8594 3.80188 49.915C3.91568 49.9705 4.04065 49.9994 4.16729 49.9994H43.3335C43.5545 49.9994 43.7664 49.9116 43.9227 49.7553C44.079 49.599 44.1668 49.3871 44.1668 49.166V45.8765L45.343 34.7025C45.7459 34.4815 46.0816 34.1558 46.3146 33.7597C46.5476 33.3637 46.6693 32.912 46.6667 32.4525V26.458C46.6659 25.7379 46.4168 25.04 45.9614 24.4822C45.506 23.9243 44.8722 23.5405 44.1668 23.3955ZM27.5003 22.4997C27.5003 21.5148 27.6943 20.5396 28.0712 19.6296C28.4481 18.7197 29.0006 17.8929 29.697 17.1965C30.3934 16.5001 31.2202 15.9476 32.1301 15.5707C33.0401 15.1938 34.0153 14.9998 35.0002 14.9998C35.9851 14.9998 36.9604 15.1938 37.8703 15.5707C38.7803 15.9476 39.607 16.5001 40.3035 17.1965C40.9999 17.8929 41.5523 18.7197 41.9292 19.6296C42.3061 20.5396 42.5001 21.5148 42.5001 22.4997V23.333H34.7919C34.0718 23.3339 33.3739 23.583 32.8161 24.0384C32.2582 24.4938 31.8744 25.1276 31.7294 25.833H27.5003V22.4997ZM23.3337 27.4997H31.6669V29.1663H23.3337V27.4997ZM24.2593 30.8329H31.6669V32.4538C31.6684 32.7939 31.737 33.1304 31.8688 33.4439C32.0007 33.7574 32.1932 34.0418 32.4353 34.2807C32.6674 34.5126 32.9436 34.6956 33.2476 34.819C33.5516 34.9425 33.8772 35.0038 34.2052 34.9995C34.8069 34.9887 35.3848 34.7623 35.8336 34.3613C36.2914 34.7722 36.885 34.9995 37.5002 34.9995C38.1154 34.9995 38.7089 34.7722 39.1668 34.3613C39.6246 34.7721 40.2179 34.9993 40.8329 34.9994C41.4479 34.9996 42.0413 34.7727 42.4993 34.3622C42.8225 34.6527 43.2166 34.8529 43.6418 34.9428L42.5835 44.9994H30.6509L30.0003 42.3969V39.9995C29.9998 39.5576 29.824 39.134 29.5116 38.8216C29.1991 38.5091 28.7755 38.3334 28.3336 38.3328H25.0485L24.2593 30.8329ZM16.6671 2.49997C16.6671 2.27896 16.7549 2.067 16.9112 1.91072C17.0675 1.75444 17.2794 1.66665 17.5005 1.66665C17.7215 1.66665 17.9334 1.75444 18.0897 1.91072C18.246 2.067 18.3338 2.27896 18.3338 2.49997V38.3328H16.6671V2.49997ZM6.66725 39.9995H28.3336V41.6661H6.66725L6.66725 39.9995ZM8.56785 48.3327L9.81784 43.3328H11.4332L10.1833 48.3327H8.56785ZM6.48455 43.3328H8.09994L6.84996 48.3327H5.23456L6.48455 43.3328ZM13.1511 43.3328H14.8899L14.2649 48.3327H11.9011L13.1511 43.3328ZM15.9444 48.3327L16.5694 43.3328H18.4315L19.0565 48.3327H15.9444ZM20.736 48.3327L20.111 43.3328H21.8498L23.0998 48.3327H20.736ZM24.8176 48.3327L23.5677 43.3328H25.1831L26.433 48.3327H24.8176ZM28.1509 48.3327L26.901 43.3328H28.5164L29.7663 48.3327H28.1509ZM42.5001 48.3327H31.4842L31.0676 46.6661H42.5001V48.3327ZM45.0001 29.9996V32.4525C45.004 32.6721 44.9244 32.8849 44.7775 33.0481C44.6306 33.2113 44.4272 33.3127 44.2084 33.3319C44.0956 33.3375 43.9829 33.3202 43.877 33.2809C43.7711 33.2416 43.6743 33.1812 43.5925 33.1034C43.5106 33.0256 43.4455 32.9319 43.4009 32.8281C43.3564 32.7243 43.3335 32.6125 43.3335 32.4996V29.1663H41.6668V32.4996C41.6668 32.7206 41.579 32.9326 41.4227 33.0888C41.2665 33.2451 41.0545 33.3329 40.8335 33.3329C40.6125 33.3329 40.4005 33.2451 40.2442 33.0888C40.088 32.9326 40.0002 32.7206 40.0002 32.4996V29.1663H38.3335V32.4996C38.3335 32.7206 38.2457 32.9326 38.0894 33.0888C37.9332 33.2451 37.7212 33.3329 37.5002 33.3329C37.2792 33.3329 37.0672 33.2451 36.9109 33.0888C36.7547 32.9326 36.6669 32.7206 36.6669 32.4996V29.1663H35.0002V32.4996C35.0005 32.7184 34.9146 32.9285 34.7611 33.0845C34.6076 33.2404 34.3988 33.3297 34.18 33.3329H34.1686C33.9564 33.3308 33.7537 33.2446 33.6048 33.0933C33.5198 33.0098 33.4521 32.9103 33.4056 32.8006C33.3592 32.6909 33.3348 32.573 33.334 32.4539V26.458C33.3344 26.0714 33.4882 25.7007 33.7616 25.4273C34.035 25.1539 34.4057 25.0001 34.7923 24.9997H43.5422C43.9288 25.0001 44.2995 25.1539 44.5729 25.4273C44.8463 25.7007 45.0001 26.0714 45.0005 26.458L45.0001 29.9996Z" fill="#000310"/>
<path d="M40.8327 39.166H39.166V43.3326H40.8327V39.166Z" fill="#000310"/>
<path d="M40.8327 35.833H39.166V37.4997H40.8327V35.833Z" fill="#000310"/>
<path d="M8.37629 26.9298C8.43162 27.0957 8.53773 27.24 8.67961 27.3422C8.82148 27.4445 8.99193 27.4995 9.1668 27.4995C9.34167 27.4995 9.51212 27.4445 9.65399 27.3422C9.79586 27.24 9.90198 27.0957 9.95731 26.9298C10.1766 26.2771 10.5441 25.6841 11.031 25.1972C11.5179 24.7104 12.1109 24.3429 12.7636 24.1236C12.9296 24.0683 13.074 23.9622 13.1763 23.8203C13.2786 23.6784 13.3336 23.5079 13.3336 23.333C13.3336 23.1581 13.2786 22.9876 13.1763 22.8457C13.074 22.7038 12.9296 22.5977 12.7636 22.5424C12.1109 22.3231 11.5179 21.9556 11.031 21.4688C10.5441 20.9819 10.1766 20.3889 9.95731 19.7362C9.90198 19.5703 9.79586 19.426 9.65399 19.3238C9.51212 19.2215 9.34167 19.1665 9.1668 19.1665C8.99193 19.1665 8.82148 19.2215 8.67961 19.3238C8.53773 19.426 8.43162 19.5703 8.37629 19.7362C8.15699 20.3889 7.78949 20.9819 7.3026 21.4688C6.81571 21.9556 6.22267 22.3231 5.56997 22.5424C5.40401 22.5977 5.25965 22.7038 5.15735 22.8457C5.05505 22.9876 5 23.1581 5 23.333C5 23.5079 5.05505 23.6784 5.15735 23.8203C5.25965 23.9622 5.40401 24.0683 5.56997 24.1236C6.22267 24.3429 6.81571 24.7104 7.3026 25.1972C7.78949 25.6841 8.15699 26.2771 8.37629 26.9298ZM9.1668 21.8296C9.57709 22.414 10.0858 22.9227 10.6701 23.333C10.0858 23.7433 9.57709 24.252 9.1668 24.8364C8.75651 24.252 8.24784 23.7433 7.66349 23.333C8.24784 22.9227 8.75651 22.414 9.1668 21.8296Z" fill="#000310"/>
<path d="M49.4296 12.5424C48.7769 12.3231 48.1839 11.9556 47.697 11.4688C47.2101 10.9819 46.8426 10.3889 46.6233 9.73616C46.568 9.57027 46.4619 9.42599 46.32 9.32375C46.1781 9.22152 46.0077 9.1665 45.8328 9.1665C45.6579 9.1665 45.4875 9.22152 45.3456 9.32375C45.2037 9.42599 45.0976 9.57027 45.0423 9.73616C44.823 10.3889 44.4555 10.9819 43.9686 11.4688C43.4817 11.9556 42.8887 12.3231 42.236 12.5424C42.07 12.5977 41.9257 12.7038 41.8234 12.8457C41.7211 12.9876 41.666 13.1581 41.666 13.333C41.666 13.5079 41.7211 13.6784 41.8234 13.8203C41.9257 13.9622 42.07 14.0683 42.236 14.1236C42.8887 14.3429 43.4817 14.7104 43.9686 15.1972C44.4555 15.6841 44.823 16.2771 45.0423 16.9298C45.0976 17.0957 45.2037 17.24 45.3456 17.3422C45.4875 17.4445 45.6579 17.4995 45.8328 17.4995C46.0077 17.4995 46.1781 17.4445 46.32 17.3422C46.4619 17.24 46.568 17.0957 46.6233 16.9298C46.8426 16.2771 47.2101 15.6841 47.697 15.1972C48.1839 14.7104 48.7769 14.3429 49.4296 14.1236C49.5956 14.0683 49.74 13.9622 49.8423 13.8203C49.9446 13.6784 49.9996 13.5079 49.9996 13.333C49.9996 13.1581 49.9446 12.9876 49.8423 12.8457C49.74 12.7038 49.5956 12.5977 49.4296 12.5424ZM45.8328 14.8364C45.4225 14.252 44.9139 13.7433 44.3295 13.333C44.9139 12.9227 45.4225 12.414 45.8328 11.8296C46.2431 12.414 46.7518 12.9227 47.3361 13.333C46.7518 13.7433 46.2431 14.252 45.8328 14.8364Z" fill="#000310"/>
<path d="M4.1668 37.4996C4.34169 37.4996 4.51214 37.4446 4.65402 37.3423C4.79589 37.24 4.902 37.0957 4.95731 36.9298C5.17661 36.2771 5.54411 35.6841 6.031 35.1972C6.51789 34.7104 7.11093 34.3429 7.76363 34.1236C7.92959 34.0683 8.07395 33.9622 8.17625 33.8203C8.27855 33.6784 8.3336 33.5079 8.3336 33.333C8.3336 33.1581 8.27855 32.9876 8.17625 32.8457C8.07395 32.7038 7.92959 32.5977 7.76363 32.5424C7.11093 32.3231 6.51789 31.9556 6.031 31.4688C5.54411 30.9819 5.17661 30.3889 4.95731 29.7362C4.90198 29.5703 4.79586 29.426 4.65399 29.3238C4.51212 29.2215 4.34167 29.1665 4.1668 29.1665C3.99193 29.1665 3.82148 29.2215 3.67961 29.3238C3.53773 29.426 3.43162 29.5703 3.37629 29.7362C3.15699 30.3889 2.78949 30.9819 2.3026 31.4688C1.81571 31.9556 1.22267 32.3231 0.56997 32.5424C0.404005 32.5977 0.259646 32.7038 0.157348 32.8457C0.0550494 32.9876 0 33.1581 0 33.333C0 33.5079 0.0550494 33.6784 0.157348 33.8203C0.259646 33.9622 0.404005 34.0683 0.56997 34.1236C1.22267 34.3429 1.81571 34.7104 2.3026 35.1972C2.78949 35.6841 3.15699 36.2771 3.37629 36.9298C3.4316 37.0957 3.5377 37.24 3.67958 37.3423C3.82146 37.4446 3.99191 37.4996 4.1668 37.4996ZM4.1668 31.8296C4.57709 32.414 5.08575 32.9227 5.67011 33.333C5.08575 33.7433 4.57709 34.252 4.1668 34.8364C3.75651 34.252 3.24784 33.7433 2.66349 33.333C3.24784 32.9227 3.75651 32.414 4.1668 31.8296Z" fill="#000310"/>
</svg>
