<svg width="62" height="63" viewBox="0 0 62 63" fill="none" xmlns="http://www.w3.org/2000/svg">
<path d="M53.7422 41.947C56.4097 43.5392 57.6701 48.2383 57.9323 49.9182L59.9216 62.2537L62 62.0295L60.0125 49.6797C59.9705 49.4066 58.9182 42.9012 54.9833 40.5675C53.6653 39.8432 52.2528 39.2411 50.7705 38.774C50.6813 38.718 50.5852 38.6734 50.4786 38.6433L49.6133 38.3918C48.3057 37.9765 46.9405 37.5885 45.6295 37.2522L44.8201 37.0194C44.7397 36.995 44.6576 36.9806 44.5719 36.9734C42.3798 36.4029 40.4552 35.9819 39.4239 35.7606V33.8752C42.5546 32.0358 44.4146 29.0669 44.4111 25.904V24.4526C44.7607 24.5575 45.1295 24.6121 45.4984 24.6164C47.2482 24.6164 48.6658 23.4509 48.6658 22.0125V19.6902C48.6658 19.0594 48.3827 18.4515 47.874 17.983C48.2113 17.5404 48.3827 17.026 48.3687 16.5058V15.5142C48.4176 14.7914 48.1397 14.0786 47.5908 13.511C47.3059 13.2667 46.9405 13.0914 46.5385 13.0095C46.2902 10.657 44.932 3.75065 37.6863 1.0519H37.6234C35.7355 0.386555 33.7095 0.0301712 31.659 0.00286754L31.0559 0.00286754C29.0946 -0.0301842 27.142 0.222734 25.2856 0.748688H25.2367C17.2131 3.1744 15.7675 10.5449 15.5402 12.9865C15.1364 13.0684 14.7693 13.2423 14.4861 13.488C13.911 14.0484 13.6104 14.7626 13.6471 15.4927V16.5129C13.6313 17.0332 13.8026 17.5462 14.1383 17.9859C13.6331 18.4587 13.3481 19.0666 13.3481 19.6974V22.024C13.3481 23.4624 14.7676 24.6264 16.5156 24.6264C16.888 24.6264 17.2533 24.5704 17.6012 24.4626V25.9198C17.6082 29.0468 19.4279 31.9826 22.501 33.8249V35.7606C18.7951 36.5553 15.1434 37.5195 11.5686 38.6533H11.5214C9.93769 39.1405 8.42737 39.7771 7.01669 40.5445C3.08182 42.9012 2.03124 49.3995 1.98754 49.6581L0 62.0152L2.07844 62.2365L4.06598 49.8794C4.33168 48.2038 5.58853 43.5105 8.22285 41.9053C9.06017 41.4469 9.94818 41.056 10.8764 40.737V48.1392C9.3451 48.6019 7.4135 49.8967 7.4135 52.6299V62.1459C7.4135 62.6159 7.87673 62.9995 8.45184 62.9995H53.5971C54.1722 62.9995 54.6337 62.6159 54.6337 62.1459V52.6457C54.6337 49.9125 52.6899 48.6191 51.1708 48.1579V40.7557C52.0745 41.0833 52.9328 41.4828 53.7422 41.947ZM46.6066 19.6902V22.0197C46.5612 22.5111 46.035 22.879 45.4372 22.8402C44.9058 22.8043 44.4827 22.4565 44.439 22.0197V19.6902C44.3936 19.1973 44.8376 18.7677 45.4372 18.726C46.035 18.6872 46.5612 19.0551 46.6066 19.5465C46.6136 19.5939 46.6136 19.6428 46.6066 19.6902ZM32.4754 1.75174C33.7392 1.83077 34.9856 2.05639 36.176 2.41565V6.73968C35.3194 7.75279 33.9682 8.40377 32.4754 8.5216V1.75174ZM26.698 2.17854C27.9007 1.89544 29.1436 1.7388 30.3987 1.7115V8.54459C28.9058 8.42676 27.5511 7.77434 26.698 6.76124V2.17854ZM17.5749 22.0125C17.5277 22.5039 17.0016 22.8733 16.4055 22.833C15.8741 22.8 15.4511 22.4522 15.4074 22.0125V19.6902C15.3584 19.1973 15.8059 18.7677 16.4055 18.726C17.0016 18.6872 17.5277 19.0551 17.5749 19.5465C17.5802 19.5939 17.5802 19.6428 17.5749 19.6902V22.0125ZM16.4877 17.082C16.2901 17.082 16.0978 17.0978 15.9073 17.1266C15.7465 16.9498 15.6696 16.7271 15.6975 16.5058V15.4711C15.6853 15.1995 15.7675 14.9322 15.9405 14.7008C15.9807 14.6735 16.0332 14.6635 16.0873 14.6692H16.4877C17.061 14.6692 17.5277 14.2855 17.5277 13.8128C17.5277 13.4147 17.6641 5.83866 24.6144 2.86544V6.96817C24.6144 7.09463 24.6493 7.21821 24.7157 7.33174C24.7874 7.45101 26.4813 10.2935 31.4283 10.2935C36.3735 10.2935 38.0744 7.4467 38.1426 7.33174C38.2055 7.21821 38.2422 7.09463 38.2369 6.96817V3.27643C44.3289 6.47239 44.474 13.4305 44.474 13.8128C44.474 14.2855 44.9407 14.6692 45.5124 14.6692H45.9144C46.0175 14.6692 46.0403 14.6692 46.0595 14.7008C46.236 14.938 46.3182 15.211 46.3025 15.4898V16.5058C46.3304 16.7299 46.25 16.9541 46.0805 17.1266C45.0614 16.9613 44.0073 17.2257 43.2766 17.835H18.7374C18.1413 17.3479 17.332 17.0806 16.4946 17.0878L16.4877 17.082ZM19.6534 25.9198V19.5436H42.3746V25.9198C42.3659 30.3976 37.9485 34.0218 32.5033 34.0175H29.5107C24.0707 34.016 19.6604 30.3933 19.6534 25.9198ZM37.3717 34.8667V36.1299L31 42.8279L24.5567 36.1299V34.8308C26.1107 35.4243 27.8011 35.7304 29.5107 35.7318H32.5033C34.1832 35.7318 35.8439 35.4358 37.3717 34.8667ZM18.5521 38.4608C20.5326 37.9635 22.2388 37.5842 23.1233 37.3945L31.014 45.5956L38.8156 37.3945C39.7123 37.5885 41.4464 37.9635 43.4706 38.4823V48.2656H18.5294L18.5521 38.4608ZM52.5588 52.6457V61.3067H9.49019V52.6457C9.49019 50.0677 11.8116 49.6969 12.0598 49.661C12.5755 49.6021 12.9548 49.2399 12.9548 48.8146V40.0429C14.0963 39.6779 15.3095 39.3316 16.4877 39.0183V49.1207C16.4877 49.5935 16.9526 49.9771 17.5277 49.9771H44.5422C45.1155 49.9771 45.5823 49.5935 45.5823 49.1207V39.0356L49.0801 40.0429V48.8146C49.0801 49.2414 49.4664 49.6064 49.9804 49.661C50.087 49.6725 52.5588 49.9771 52.5588 52.6457Z" fill="#000310"/>
</svg>
