<svg xmlns="http://www.w3.org/2000/svg" viewBox="0 0 68.16 63.49"><defs><style>.cls-1{fill:#1f845b;}</style></defs><title>Recurso 12</title><g id="Capa_2" data-name="Capa 2"><g id="home"><path class="cls-1" d="M.15,5.82l4.54,7.4a1.15,1.15,0,0,0,.71.5l4.24,1L24.17,28.25l1.61-1.5L11,13a1.17,1.17,0,0,0-.53-.27l-4.07-1L2.55,5.47,5.87,2.38,12.64,6l1,3.8a1.14,1.14,0,0,0,.3.49L28.73,24l1.6-1.5L15.8,9,14.74,5a1.07,1.07,0,0,0-.54-.66L6.25.15A1.18,1.18,0,0,0,4.89.32L.34,4.55A1,1,0,0,0,.15,5.82Z"/><path class="cls-1" d="M47.36,20.84l-25,23.27-1.61-1.49,25-23.27Z"/><path class="cls-1" d="M18,44.94a1.17,1.17,0,0,0-1-.52H10.22a1.14,1.14,0,0,0-1,.52L5.84,50.22a1,1,0,0,0,0,1.09L9.25,56.6a1.13,1.13,0,0,0,1,.51H17a1.16,1.16,0,0,0,1-.51l3.4-5.29a1,1,0,0,0,0-1.09ZM16.39,55H10.86L8.14,50.77l2.72-4.23h5.53l2.73,4.23Z"/><path class="cls-1" d="M54.51,25.39c7.5,0,13.6-5.62,13.62-12.61a11.6,11.6,0,0,0-.41-3.15,1.14,1.14,0,0,0-1.38-.77,1.17,1.17,0,0,0-.53.27l-7.07,6.58L53.13,14,51.26,8.75l7.07-6.59a1,1,0,0,0,0-1.49A1.13,1.13,0,0,0,57.8.39C50.53-1.33,43.14,2.78,41.3,9.55a11.94,11.94,0,0,0-.42,3.14,10.84,10.84,0,0,0,.28,2.48L16.29,38.33a14.88,14.88,0,0,0-2.66-.25C6.1,38.08,0,43.76,0,50.77S6.1,63.46,13.63,63.46s13.62-5.68,13.62-12.69A11.56,11.56,0,0,0,27,48.29l5.95-5.54,2.6,2.42a1.21,1.21,0,0,0,1.61,0l.57-.53a1.35,1.35,0,0,1,1.8,0,1.13,1.13,0,0,1,0,1.68h0l-.57.53a1,1,0,0,0,0,1.49L52.49,61a9.66,9.66,0,0,0,13,.06,8.14,8.14,0,0,0,.06-12.08l-.06,0L51.9,36.27a1.19,1.19,0,0,0-1.6,0l-.57.53a1.35,1.35,0,0,1-1.8,0,1.12,1.12,0,0,1,0-1.67h0l.57-.53a1,1,0,0,0,0-1.49l-2.61-2.43,6-5.54A14.71,14.71,0,0,0,54.51,25.39Zm4.46,36a7.64,7.64,0,0,1-2.42-.41l8.87-8.27a6.3,6.3,0,0,1-4,8.27A7.42,7.42,0,0,1,59,61.35ZM46.1,33.86a3.15,3.15,0,0,0,.44,4.65,3.74,3.74,0,0,0,4.56,0L63.84,50.38c.14.13.27.27.4.41l-9.71,9c-.15-.12-.3-.24-.44-.37L41.34,47.59a3.15,3.15,0,0,0-.44-4.65,3.75,3.75,0,0,0-4.56,0l-1.81-1.69,9.76-9.08Zm4.59-10.64-25.76,24a1,1,0,0,0-.3,1c1.56,5.7-2.14,11.5-8.26,12.95S4,59.17,2.47,53.47,4.61,42,10.73,40.52a12.21,12.21,0,0,1,5.64,0,1.2,1.2,0,0,0,1.08-.28l25.75-24a1,1,0,0,0,.3-1C42,9.62,45.6,3.88,51.65,2.44a12.45,12.45,0,0,1,3.5-.31l-6,5.59a1,1,0,0,0-.27,1.08l2.27,6.34a1.07,1.07,0,0,0,.72.67l6.81,2.12a1.19,1.19,0,0,0,1.16-.26l6-5.58c0,.21,0,.4,0,.6,0,5.82-5,10.55-11.24,10.58a12.55,12.55,0,0,1-2.86-.33,1.21,1.21,0,0,0-1.08.28Z"/><path class="cls-1" d="M58.72,53.19l-1.61,1.5L45.76,44.11l1.6-1.49Z"/></g></g></svg>