<svg xmlns="http://www.w3.org/2000/svg" viewBox="0 0 68.16 63.27"><defs><style>.cls-1{fill:#1f845b;}</style></defs><title>Gardener-2</title><g id="Capa_2" data-name="Capa 2"><g id="home"><g id="Gardener-2"><rect class="cls-1" x="19.31" y="17.77" width="2.27" height="2.12"/><rect class="cls-1" x="30.67" y="17.77" width="2.27" height="2.12"/><path class="cls-1" d="M40.9,56.92H42V54.8H40.9V52.68H42V50.57H40.9a2.08,2.08,0,0,0-1.14-1.82V40.57l.78.23a9.84,9.84,0,0,1,1,.36l.91-1.94a11.93,11.93,0,0,0-1.27-.44L31.81,36V32.35A11.51,11.51,0,0,0,38.63,22V20.94A3.29,3.29,0,0,0,42,17.79a3.08,3.08,0,0,0-.89-2.14h2a3.3,3.3,0,0,0,3.41-3.17A3.3,3.3,0,0,0,43.17,9.3H38.63V3.17A3.3,3.3,0,0,0,35.22,0l-.34,0L27.15.74a11.58,11.58,0,0,1-2,0L17.38,0a3.35,3.35,0,0,0-3.73,2.84c0,.1,0,.21,0,.31V9.3H9.09a3.3,3.3,0,0,0-3.41,3.18,3.3,3.3,0,0,0,3.41,3.17h2a3,3,0,0,0,.22,4.46,3.53,3.53,0,0,0,2.3.83V22a11.58,11.58,0,0,0,6.82,10.36V36l-9.4,2.75a11.69,11.69,0,0,0-8.78,11.1v.69H1.14A1.1,1.1,0,0,0,0,51.63v4.23a1.11,1.11,0,0,0,1.14,1.06H2.27v5.29a1.11,1.11,0,0,0,1.14,1.06h40.9V61.15H40.9Zm-26.13-17L17,39.25V49.51a1.1,1.1,0,0,1-1.13,1.06,1.14,1.14,0,0,1-.81-.33,1,1,0,0,1-.33-.73ZM13.63,51.85a3.46,3.46,0,0,0,2.28.83,3.39,3.39,0,0,0,3.19-2.11H33.16a3.38,3.38,0,0,0,3.19,2.11,3.45,3.45,0,0,0,2.28-.82v9.29h-25Zm23.86-2.34a1,1,0,0,1-.35.75,1.12,1.12,0,0,1-.79.31,1.1,1.1,0,0,1-1.13-1.06V39.25l2.27.66ZM33,38.58v9.87H19.31V38.58l1.36-.39a5.71,5.71,0,0,0,6.91,3.74,5.47,5.47,0,0,0,4-3.74ZM22.72,33.19a13.15,13.15,0,0,0,6.82,0v3.62a3.42,3.42,0,0,1-6.82,0ZM38.63,18.82V16.71a1.06,1.06,0,1,1,0,2.11ZM16.28,2.39a1.21,1.21,0,0,1,.88-.27l7.72.72a13.05,13.05,0,0,0,2.5,0l7.73-.72a1.12,1.12,0,0,1,1.24.95s0,.07,0,.11V5.07H15.91V3.17A1,1,0,0,1,16.28,2.39Zm-.37,4.79H36.35V9.3H15.91Zm-8,5.3a1.1,1.1,0,0,1,1.14-1.06H43.17a1.06,1.06,0,1,1,0,2.11H9.09A1.1,1.1,0,0,1,8,12.48Zm4.55,5.29a1.1,1.1,0,0,1,1.13-1.06v2.11A1.09,1.09,0,0,1,12.5,17.77ZM15.91,22V15.65H36.35V22c0,5.26-4.57,9.52-10.22,9.52S15.91,27.26,15.91,22ZM4.54,49.88a9.57,9.57,0,0,1,7.18-9.08l.78-.23v8.18a2.08,2.08,0,0,0-1.14,1.82H4.54Zm-2.27,2.8h9.09V54.8H2.27Zm2.27,4.24h6.82v4.23H4.54Z"/><path class="cls-1" d="M60.21,29.41a4.56,4.56,0,0,0-9.09,0,4.56,4.56,0,0,0,9.09,0Zm-6.81,0a2.28,2.28,0,1,1,2.27,2.11A2.2,2.2,0,0,1,53.4,29.41Z"/><path class="cls-1" d="M67,48.45H56.8V46.89a8.25,8.25,0,0,0,2.32.35,7.94,7.94,0,0,0,3.74-.93A7.07,7.07,0,0,0,66.66,40a1.06,1.06,0,0,0-.55-.89A8.14,8.14,0,0,0,58.33,39a7.58,7.58,0,0,0-1.53,1.09V38.78a4.56,4.56,0,0,0,2.4-1.44,4.45,4.45,0,0,0,5-3.69,3.85,3.85,0,0,0,0-1,4,4,0,0,0,.72-5.9,4.18,4.18,0,0,0-.72-.67,4.27,4.27,0,0,0-4-4.65,4.35,4.35,0,0,0-1,0,4.74,4.74,0,0,0-6.34-.68,4.23,4.23,0,0,0-.72.68,4.45,4.45,0,0,0-5,3.69,3.85,3.85,0,0,0,0,1,4,4,0,0,0-.73,5.9,4.24,4.24,0,0,0,.73.67,4.27,4.27,0,0,0,4,4.65,4.44,4.44,0,0,0,1,0,4.57,4.57,0,0,0,2.39,1.44v1.28A7.31,7.31,0,0,0,53,39a8.17,8.17,0,0,0-7.77.13,1.05,1.05,0,0,0-.55.89,7,7,0,0,0,3.8,6.32,7.94,7.94,0,0,0,3.74.93,8.24,8.24,0,0,0,2.31-.35v1.56H44.31a1.11,1.11,0,0,0-1.14,1.06v4.23a1.1,1.1,0,0,0,1.14,1.06h1.27l1,7.54a1.11,1.11,0,0,0,1.13.93h15.9a1.12,1.12,0,0,0,1.13-.93l1-7.54H67a1.09,1.09,0,0,0,1.13-1.06V49.51A1.1,1.1,0,0,0,67,48.45Zm-7.57-7.64a5.72,5.72,0,0,1,4.9-.18,5.18,5.18,0,0,1-5.71,4.48,5.67,5.67,0,0,1-1.82-.46A5,5,0,0,1,59.46,40.81Zm-5.79-5.14a1.15,1.15,0,0,0-1-.56,1.32,1.32,0,0,0-.34,0,2.28,2.28,0,0,1-2.83-1.34,2,2,0,0,1,0-1.29,1,1,0,0,0-.55-1.25,2,2,0,0,1-1-2.81,2.09,2.09,0,0,1,1-.92,1,1,0,0,0,.55-1.25,2.06,2.06,0,0,1,1.44-2.63,2.35,2.35,0,0,1,1.39,0,1.17,1.17,0,0,0,1.34-.52,2.32,2.32,0,0,1,3-.91,2.17,2.17,0,0,1,1,.91,1.18,1.18,0,0,0,1.35.52A2.27,2.27,0,0,1,61.83,25a1.91,1.91,0,0,1,0,1.29,1,1,0,0,0,.56,1.25,2,2,0,0,1,1,2.81,2.13,2.13,0,0,1-1,.92,1,1,0,0,0-.56,1.25,2.05,2.05,0,0,1-1.44,2.63,2.32,2.32,0,0,1-1.38,0,1.18,1.18,0,0,0-1.35.52,2.31,2.31,0,0,1-3,.91,2.19,2.19,0,0,1-1-.91Zm-4.06,8.81A5,5,0,0,1,47,40.63,5.45,5.45,0,0,1,54,43a4.57,4.57,0,0,1,.49,1.69,5.7,5.7,0,0,1-4.89-.17Zm13,16.67H48.72l-.85-6.35h15.6Zm3.27-8.47H45.44V50.57H65.89Z"/><path class="cls-1" d="M31.81,26.23V24.11a3.3,3.3,0,0,0-3.41-3.17H23.86a3.3,3.3,0,0,0-3.41,3.17v2.12a1.1,1.1,0,0,0,1.14,1.06h9.08A1.1,1.1,0,0,0,31.81,26.23Zm-2.27-1.06H22.72V24.11a1.1,1.1,0,0,1,1.14-1.05H28.4a1.1,1.1,0,0,1,1.14,1.05Z"/></g></g></g></svg>