<svg width="50" height="55" viewBox="0 0 50 55" fill="none" xmlns="http://www.w3.org/2000/svg">
<path d="M15.8368 15.4561H14.1709V17.2973H15.8368V15.4561Z" fill="#000310"/>
<path d="M24.1747 15.4561H22.5088V17.2973H24.1747V15.4561Z" fill="#000310"/>
<path d="M30.0161 49.4585H30.8234V47.6172H30.0161V45.776H30.8234V43.9434H30.0161C30.0114 43.6148 29.931 43.2939 29.7835 43.0154C29.6361 42.7368 29.4273 42.5112 29.1795 42.3627V35.2582L29.7519 35.458C30.0012 35.5465 30.2461 35.6509 30.4858 35.7706L31.1537 34.0857C30.8493 33.9377 30.5381 33.8101 30.2216 33.7036L23.3451 31.2891V28.119C24.8171 27.3419 26.0705 26.0827 26.9574 24.4898C27.8443 22.897 28.3276 21.0372 28.3502 19.1298V18.2092C28.9833 18.2281 29.5972 17.9519 30.0598 17.4402C30.5225 16.9284 30.7967 16.2221 30.8234 15.4734C30.8185 14.7768 30.5842 14.11 30.1703 13.6147H31.638C32.278 13.6406 32.9006 13.3654 33.3695 12.8495C33.8385 12.3335 34.1158 11.6188 34.1406 10.8615C34.1176 10.112 33.8473 9.40305 33.3877 8.88671C32.9281 8.37036 32.3157 8.0878 31.6821 8.09966H28.3502V2.77564C28.3254 2.01842 28.0481 1.30367 27.5791 0.787715C27.1102 0.271763 26.4876 -0.00338989 25.8476 0.0224408H25.5981L19.9251 0.665144C19.4368 0.715239 18.9457 0.715239 18.4574 0.665144L12.755 0.0224408C12.1168 -0.0718945 11.4727 0.133525 10.961 0.594639C10.4492 1.05575 10.1106 1.73584 10.0176 2.48903C10.0176 2.57588 10.0176 2.67142 10.0176 2.75827V8.09966H6.67107C6.02989 8.07386 5.40626 8.3502 4.93707 8.86801C4.46787 9.38582 4.19146 10.1028 4.1685 10.8615C4.19335 11.6188 4.47059 12.3335 4.93958 12.8495C5.40856 13.3654 6.03111 13.6406 6.67107 13.6147H8.13885C7.91923 13.8722 7.74788 14.1816 7.63597 14.5226C7.52406 14.8636 7.4741 15.2288 7.48933 15.5942C7.50456 15.9596 7.58464 16.3171 7.72437 16.6435C7.8641 16.9698 8.06034 17.2577 8.30031 17.4883C8.77242 17.9589 9.37101 18.2146 9.98826 18.2092V19.1298C10.0157 21.0369 10.5008 22.8955 11.3871 24.4887C12.2733 26.0818 13.524 27.3439 14.9934 28.1277V31.2891L8.09482 33.6775C6.27788 34.2297 4.66396 35.4715 3.5002 37.2127C2.33643 38.9539 1.68697 41.0984 1.65125 43.3181V43.9173H0.836636C0.728793 43.9127 0.621257 43.9337 0.520386 43.9791C0.419515 44.0244 0.327356 44.0933 0.249357 44.1816C0.171359 44.2698 0.109105 44.3757 0.0662751 44.4929C0.0234453 44.6101 0.000909528 44.7363 0 44.864L0 48.5379C0.00954232 48.7905 0.102595 49.0286 0.259097 49.2008C0.415599 49.373 0.623017 49.4656 0.836636 49.4585H1.66593V54.0529C1.67548 54.3056 1.76853 54.5437 1.92503 54.7159C2.08153 54.8881 2.28895 54.9807 2.50257 54.9736H32.5187V53.1323H30.0161V49.4585ZM10.8396 34.6937L12.4761 34.1118V43.0228C12.4685 43.2747 12.377 43.5127 12.2217 43.6852C12.0664 43.8576 11.8597 43.9504 11.6469 43.9434C11.5367 43.9443 11.4275 43.9194 11.3255 43.8702C11.2235 43.8211 11.1307 43.7485 11.0524 43.6568C10.9773 43.5766 10.917 43.4788 10.8753 43.3697C10.8336 43.2606 10.8115 43.1425 10.8102 43.0228L10.8396 34.6937ZM10.0029 45.0551C10.4689 45.5265 11.0632 45.7826 11.6762 45.776C12.177 45.7849 12.6683 45.6147 13.086 45.2877C13.5037 44.9608 13.8283 44.4922 14.0173 43.9434H24.3358C24.524 44.4929 24.8484 44.9621 25.2663 45.2893C25.6842 45.6164 26.176 45.7861 26.6769 45.776C27.2891 45.7858 27.8836 45.5328 28.3502 45.0638V53.1323H10.0029V45.0551ZM27.5136 43.0228C27.5125 43.1467 27.4891 43.269 27.4448 43.3814C27.4005 43.4937 27.3363 43.5936 27.2567 43.6742C27.1008 43.8504 26.8926 43.9471 26.6769 43.9434C26.464 43.9504 26.2574 43.8576 26.1021 43.6852C25.9468 43.5127 25.8553 43.2747 25.8476 43.0228V34.1118L27.5136 34.685V43.0228ZM24.2184 33.5299V42.1021H14.1714V33.5299L15.1695 33.1911C15.5028 34.3979 16.2145 35.4073 17.158 36.0116C18.1014 36.6159 19.2047 36.769 20.2407 36.4394C20.9281 36.251 21.5613 35.8516 22.0767 35.2813C22.5921 34.711 22.9713 33.9901 23.1763 33.1911L24.2184 33.5299ZM16.674 28.8486C18.3134 29.3695 20.0398 29.3695 21.6791 28.8486V31.9926C21.6308 32.7389 21.3462 33.4361 20.8822 33.9447C20.4182 34.4534 19.809 34.7359 19.1766 34.7359C18.5441 34.7359 17.935 34.4534 17.471 33.9447C17.007 33.4361 16.7223 32.7389 16.674 31.9926V28.8486ZM28.3502 16.368V14.5354C28.4582 14.5229 28.5672 14.5373 28.6703 14.5777C28.7733 14.6181 28.868 14.6835 28.9484 14.7698C29.0288 14.8561 29.093 14.9614 29.1369 15.0788C29.1809 15.1962 29.2036 15.3232 29.2036 15.4517C29.2036 15.5801 29.1809 15.7071 29.1369 15.8245C29.093 15.942 29.0288 16.0472 28.9484 16.1335C28.868 16.2198 28.7733 16.2852 28.6703 16.3256C28.5672 16.366 28.4582 16.3804 28.3502 16.368ZM11.9477 2.0982C12.1285 1.9224 12.3606 1.83812 12.5936 1.8637L18.2592 2.48903C18.8694 2.55852 19.4838 2.55852 20.0939 2.48903L25.7669 1.8637C25.9795 1.83388 26.1936 1.90341 26.3635 2.05751C26.5335 2.2116 26.6459 2.43809 26.6769 2.68879C26.6769 2.68879 26.6769 2.74959 26.6769 2.78433V4.42583H11.6762V2.77564C11.6758 2.64589 11.7 2.51769 11.747 2.40046C11.794 2.28323 11.8626 2.17994 11.9477 2.0982ZM11.6762 6.2584H26.6769V8.09966H11.6762V6.2584ZM5.80508 10.8615C5.80886 10.7361 5.83352 10.6127 5.87762 10.4985C5.92173 10.3843 5.98443 10.2815 6.06213 10.196C6.13984 10.1105 6.23102 10.0439 6.33047 10.0002C6.42992 9.95641 6.53568 9.93627 6.64171 9.94092H31.6821C31.7901 9.92846 31.8991 9.94288 32.0021 9.98326C32.1051 10.0236 32.1999 10.0891 32.2803 10.1754C32.3606 10.2617 32.4249 10.3669 32.4688 10.4843C32.5128 10.6018 32.5355 10.7288 32.5355 10.8572C32.5355 10.9856 32.5128 11.1126 32.4688 11.2301C32.4249 11.3475 32.3606 11.4527 32.2803 11.539C32.1999 11.6253 32.1051 11.6908 32.0021 11.7311C31.8991 11.7715 31.7901 11.7859 31.6821 11.7735H6.67107C6.46445 11.7715 6.26632 11.6759 6.11751 11.5062C5.96869 11.3366 5.88051 11.1058 5.87113 10.8615H5.80508ZM9.14428 15.456C9.15194 15.2041 9.2434 14.966 9.39874 14.7936C9.55407 14.6212 9.76069 14.5283 9.97358 14.5354V16.368C9.76641 16.3681 9.56727 16.2732 9.41807 16.1031C9.26886 15.933 9.18124 15.701 9.17364 15.456H9.14428ZM11.6762 19.1298V13.6147H26.6769V19.1298C26.6769 23.6982 23.3231 27.3981 19.1766 27.3981C15.0301 27.3981 11.6762 23.6982 11.6762 19.1298ZM3.33187 43.3441C3.36188 41.529 3.89325 39.7754 4.84478 38.3513C5.79631 36.9272 7.11566 35.911 8.6012 35.458L9.17364 35.2582V42.3627C8.92587 42.5112 8.71703 42.7368 8.56961 43.0154C8.42218 43.2939 8.34176 43.6148 8.337 43.9434H3.33187V43.3441ZM1.66593 45.776H8.337V47.6172H1.66593V45.776ZM3.33187 49.4585H8.337V53.1323H3.33187V49.4585Z" fill="#000310"/>
<path d="M44.1877 25.5657C44.1195 24.5742 43.7386 23.6493 43.1206 22.975C42.5026 22.3007 41.6927 21.9263 40.8521 21.9263C40.0115 21.9263 39.2017 22.3007 38.5837 22.975C37.9657 23.6493 37.5847 24.5742 37.5166 25.5657C37.5847 26.5573 37.9657 27.4822 38.5837 28.1565C39.2017 28.8308 40.0115 29.2052 40.8521 29.2052C41.6927 29.2052 42.5026 28.8308 43.1206 28.1565C43.7386 27.4822 44.1195 26.5573 44.1877 25.5657ZM39.1899 25.5657C39.1648 25.1688 39.2414 24.7721 39.4097 24.4274C39.578 24.0827 39.8301 23.8061 40.1333 23.6335C40.4364 23.461 40.7765 23.4006 41.109 23.4602C41.4416 23.5198 41.7513 23.6967 41.9977 23.9677C42.2441 24.2387 42.4157 24.5913 42.4902 24.9795C42.5647 25.3677 42.5386 25.7735 42.4153 26.1438C42.292 26.5142 42.0773 26.832 41.7991 27.0558C41.5209 27.2796 41.1922 27.399 40.8558 27.3983C40.43 27.4148 40.0159 27.2314 39.7039 26.8881C39.3918 26.5448 39.2071 26.0695 39.1899 25.5657Z" fill="#000310"/>
<path d="M49.1703 42.1019H41.6846V40.747C42.237 40.9438 42.8103 41.0462 43.3872 41.051C44.3443 41.0526 45.287 40.7752 46.132 40.2433C46.9775 39.7213 47.6851 38.9336 48.1771 37.9668C48.669 37 48.9264 35.8915 48.9207 34.7629C48.9157 34.6037 48.8759 34.4489 48.8051 34.3134C48.7344 34.1779 48.6351 34.0664 48.5171 33.9899C47.6478 33.4112 46.6699 33.0992 45.6725 33.0825C44.6752 33.0658 43.6902 33.3449 42.8074 33.8944C42.4014 34.1536 42.0242 34.4716 41.6846 34.8411V33.7033C42.368 33.5152 42.9841 33.0777 43.4459 32.4526C44.2899 32.5905 45.1461 32.3325 45.8316 31.7338C46.5172 31.135 46.9779 30.2429 47.1154 29.2478C47.1473 28.9595 47.1473 28.6676 47.1154 28.3793C47.452 28.0997 47.7353 27.7396 47.9468 27.3222C48.1583 26.9048 48.2933 26.4394 48.3431 25.9563C48.393 25.4732 48.3565 24.9831 48.236 24.5177C48.1155 24.0524 47.9137 23.6222 47.6438 23.255C47.4876 23.0371 47.3102 22.8418 47.1154 22.6731C47.1535 22.1783 47.1072 21.6794 46.9792 21.2061C46.8512 20.7328 46.6441 20.2948 46.3703 19.9181C46.0964 19.5414 45.7614 19.2337 45.3851 19.0132C45.0089 18.7927 44.599 18.6639 44.1798 18.6345C43.936 18.6011 43.6897 18.6011 43.4459 18.6345C42.8713 17.8689 42.0763 17.3842 41.2159 17.275C40.3556 17.1657 39.4918 17.4399 38.793 18.0439C38.598 18.2156 38.4206 18.4139 38.2646 18.6345C37.4206 18.4967 36.5645 18.7547 35.8789 19.3534C35.1934 19.9521 34.7327 20.8443 34.5952 21.8394C34.5633 22.1276 34.5633 22.4196 34.5952 22.7079C34.258 22.9868 33.9741 23.3464 33.7619 23.7635C33.5497 24.1805 33.414 24.6457 33.3635 25.1289C33.3129 25.612 33.3488 26.1023 33.4687 26.568C33.5886 27.0337 33.7899 27.4644 34.0594 27.8321C34.2182 28.0502 34.398 28.2455 34.5952 28.414C34.5571 28.9089 34.6034 29.4078 34.7314 29.8811C34.8594 30.3543 35.0665 30.7923 35.3403 31.169C35.6141 31.5458 35.9491 31.8535 36.3254 32.074C36.7017 32.2945 37.1116 32.4233 37.5308 32.4526C37.7746 32.4854 38.0208 32.4854 38.2646 32.4526C38.7248 33.0757 39.3381 33.513 40.0186 33.7033V34.815C39.679 34.4528 39.3017 34.1434 38.8958 33.8944C38.0121 33.3514 37.0281 33.0774 36.0326 33.0971C35.037 33.1168 34.0613 33.4296 33.1935 34.0073C33.075 34.0831 32.9753 34.1944 32.9045 34.3301C32.8337 34.4657 32.7941 34.6209 32.7898 34.7803C32.777 35.9117 33.0312 37.0249 33.5239 37.9946C34.0166 38.9644 34.7282 39.7521 35.5786 40.2693C36.4236 40.8012 37.3663 41.0786 38.3234 41.077C38.8978 41.0715 39.4686 40.9692 40.0186 40.773V42.1279H32.5183C32.3047 42.1209 32.0972 42.2134 31.9407 42.3856C31.7842 42.5578 31.6912 42.7959 31.6816 43.0486V46.7224C31.6854 46.8479 31.7101 46.9713 31.7542 47.0855C31.7983 47.1997 31.861 47.3025 31.9387 47.388C32.0164 47.4735 32.1076 47.54 32.207 47.5838C32.3065 47.6275 32.4122 47.6477 32.5183 47.643H33.4503L34.1842 54.1917C34.2162 54.4224 34.3179 54.6316 34.4704 54.7802C34.623 54.9288 34.816 55.0067 35.0135 54.9994H46.6824C46.8795 55.0048 47.0717 54.9263 47.2239 54.778C47.3762 54.6297 47.4783 54.4216 47.5117 54.1917L48.2456 47.643H49.1703C49.2759 47.6477 49.3813 47.6275 49.4804 47.5836C49.5794 47.5397 49.6701 47.4731 49.7472 47.3874C49.8243 47.3018 49.8863 47.199 49.9296 47.0848C49.973 46.9707 49.9967 46.8475 49.9996 46.7224V43.0225C49.9919 42.7706 49.9004 42.5325 49.7451 42.3601C49.5898 42.1877 49.3832 42.0948 49.1703 42.1019ZM43.6147 35.4664C44.1668 35.1265 44.7759 34.9361 45.3979 34.9091C46.0198 34.8821 46.6391 35.019 47.2108 35.3101C47.0823 36.479 46.5713 37.5416 45.7876 38.2693C45.0039 38.9969 44.0102 39.3315 43.0203 39.201C42.5594 39.1566 42.108 39.0216 41.6846 38.8015C41.756 38.0995 41.9711 37.4288 42.3113 36.8476C42.6515 36.2664 43.1065 35.7922 43.6367 35.4664H43.6147ZM39.3655 31.0022C39.2898 30.8523 39.1822 30.7285 39.0534 30.6431C38.9246 30.5578 38.7792 30.5139 38.6316 30.5159C38.5488 30.5031 38.4649 30.5031 38.3821 30.5159C37.9758 30.6724 37.5343 30.639 37.1481 30.4226C36.7619 30.2062 36.4603 29.8232 36.3052 29.352C36.2006 28.9888 36.2006 28.5949 36.3052 28.2316C36.3667 28.0238 36.3592 27.7961 36.2843 27.5946C36.2094 27.393 36.0726 27.2327 35.9015 27.146C35.7102 27.0536 35.5375 26.9145 35.3948 26.7377C35.252 26.5609 35.1424 26.3504 35.0732 26.1201C35.0039 25.8897 34.9765 25.6446 34.9928 25.4008C35.009 25.1571 35.0686 24.9201 35.1676 24.7055C35.3302 24.3498 35.5885 24.0686 35.9015 23.9064C36.0726 23.8197 36.2094 23.6594 36.2843 23.4578C36.3592 23.2563 36.3667 23.0286 36.3052 22.8208C36.2415 22.5888 36.2185 22.3439 36.2378 22.1011C36.257 21.8583 36.318 21.6226 36.4169 21.4087C36.5159 21.1948 36.6508 21.0071 36.8133 20.8571C36.9758 20.7071 37.1625 20.5981 37.362 20.5366C37.6942 20.4148 38.0498 20.4148 38.3821 20.5366C38.5651 20.6015 38.7612 20.5924 38.9393 20.5106C39.1174 20.4288 39.2674 20.279 39.3655 20.085C39.5824 19.6512 39.9289 19.3294 40.3365 19.1831C40.744 19.0368 41.1831 19.0766 41.5672 19.2946C41.8767 19.4588 42.1338 19.7357 42.301 20.085C42.4004 20.2797 42.5517 20.4298 42.7311 20.5115C42.9105 20.5933 43.1077 20.6021 43.2918 20.5366C43.7027 20.3772 44.1499 20.4131 44.5389 20.6367C44.9278 20.8604 45.228 21.2543 45.3761 21.7351C45.4858 22.0973 45.4858 22.4934 45.3761 22.8555C45.315 23.0644 45.3235 23.293 45.3998 23.4947C45.4762 23.6964 45.6147 23.8561 45.787 23.9412C45.9783 24.0335 46.151 24.1727 46.2938 24.3495C46.4365 24.5263 46.5461 24.7367 46.6154 24.9671C46.6847 25.1975 46.7121 25.4426 46.6958 25.6863C46.6795 25.9301 46.6199 26.1671 46.5209 26.3817C46.3566 26.7357 46.0988 27.0164 45.787 27.1807C45.6147 27.2658 45.4762 27.4255 45.3998 27.6272C45.3235 27.8289 45.315 28.0575 45.3761 28.2664C45.4408 28.4983 45.4646 28.7435 45.4459 28.9868C45.4272 29.23 45.3664 29.4661 45.2672 29.6804C45.1681 29.8946 45.0328 30.0824 44.8697 30.2322C44.7066 30.3819 44.5193 30.4903 44.3192 30.5506C43.9895 30.6722 43.6363 30.6722 43.3065 30.5506C43.1224 30.4851 42.9251 30.4939 42.7458 30.5757C42.5664 30.6574 42.4151 30.8075 42.3157 31.0022C42.1 31.4375 41.7536 31.7606 41.3455 31.9071C40.9375 32.0535 40.4978 32.0127 40.1141 31.7926C39.8051 31.6273 39.5482 31.3507 39.3802 31.0022H39.3655ZM36.3859 38.6539C35.8657 38.3187 35.4218 37.8396 35.092 37.2573C34.7623 36.675 34.5566 36.0069 34.4924 35.3101C35.4107 34.8266 36.449 34.77 37.4009 35.1514C38.3528 35.5328 39.1485 36.3243 39.6297 37.3685C39.8288 37.8255 39.9509 38.324 39.9893 38.8363C39.4194 39.1285 38.8016 39.2669 38.1809 39.2413C37.5601 39.2158 36.952 39.027 36.4006 38.6886L36.3859 38.6539ZM45.9265 53.1321H35.7547L35.1309 47.617H46.5796L45.9265 53.1321ZM48.3263 45.7757H33.3476V43.9431H48.3556L48.3263 45.7757Z" fill="#000310"/>
<path d="M23.3448 22.8036V20.9624C23.32 20.2052 23.0427 19.4904 22.5737 18.9745C22.1048 18.4585 21.4822 18.1834 20.8422 18.2092H17.5104C16.8704 18.1834 16.2479 18.4585 15.7789 18.9745C15.3099 19.4904 15.0327 20.2052 15.0078 20.9624V22.8036C15.0116 22.9291 15.0362 23.0525 15.0804 23.1667C15.1245 23.2809 15.1872 23.3837 15.2649 23.4692C15.3426 23.5547 15.4338 23.6213 15.5332 23.665C15.6327 23.7088 15.7384 23.7289 15.8444 23.7243H22.5082C22.6142 23.7289 22.72 23.7088 22.8194 23.665C22.9189 23.6213 23.0101 23.5547 23.0878 23.4692C23.1655 23.3837 23.2282 23.2809 23.2723 23.1667C23.3164 23.0525 23.341 22.9291 23.3448 22.8036ZM21.6789 21.883H16.6737V20.9624C16.6833 20.7105 16.7766 20.4733 16.9333 20.3024C17.09 20.1316 17.2975 20.041 17.5104 20.0504H20.8422C21.0552 20.041 21.2626 20.1316 21.4193 20.3024C21.576 20.4733 21.6693 20.7105 21.6789 20.9624V21.883Z" fill="#000310"/>
</svg>
