<svg xmlns="http://www.w3.org/2000/svg" viewBox="0 0 64.63 63.49"><defs><style>.cls-1{fill:#1f845b;}</style></defs><title>Recurso 6</title><g id="Capa_2" data-name="Capa 2"><g id="home"><path class="cls-1" d="M60.88,0H10A3.64,3.64,0,0,0,6.23,3.5V7.8A6.81,6.81,0,0,0,0,14.36v4.77a6.87,6.87,0,0,0,7.1,6.61H29.36a5.2,5.2,0,0,1,5.36,5V34.5H27.24a.84.84,0,0,0-.87.81.49.49,0,0,0,0,.12l.22,1.39a3.81,3.81,0,0,0,3.12,3.08V56.55H29a.84.84,0,0,0-.87.81V60a3.64,3.64,0,0,0,3.76,3.5h7A3.63,3.63,0,0,0,42.7,60V57.36a.83.83,0,0,0-.86-.81h-.69V39.9a3.79,3.79,0,0,0,3.11-3.08l.23-1.4a.81.81,0,0,0-.73-.91H36.45V30.74a6.87,6.87,0,0,0-7.09-6.61H7.1a5.21,5.21,0,0,1-5.37-5V14.36a5.14,5.14,0,0,1,4.5-4.93v4.19A3.64,3.64,0,0,0,10,17.12H60.88a3.63,3.63,0,0,0,3.75-3.5V3.5A3.63,3.63,0,0,0,60.88,0ZM41,60a2,2,0,0,1-2,1.88h-7a2,2,0,0,1-2-1.88V58.17H41Zm-9.52-3.44V40h8V56.55ZM42.62,36.11l-.07.47a2.2,2.2,0,0,1-2.23,1.79H30.54a2.2,2.2,0,0,1-2.22-1.79l-.08-.47ZM62.9,13.62a2,2,0,0,1-2,1.89H10a2,2,0,0,1-2-1.89V3.5a2,2,0,0,1,2-1.89H60.88a2,2,0,0,1,2,1.89Z"/></g></g></svg>