<svg width="70" height="70" viewBox="0 0 70 70" fill="none" xmlns="http://www.w3.org/2000/svg">
<path d="M57.0989 10.0019L17.7363 10.0019C16.9907 9.97424 16.2647 10.2489 15.7178 10.7656C15.1709 11.2822 14.8479 11.9987 14.8197 12.7575V16.143C13.5344 16.2541 12.3337 16.8412 11.4454 17.7932C10.557 18.7451 10.0427 19.9956 10 21.3077L10 25.0632C10.0524 26.4939 10.66 27.845 11.6896 28.8205C12.7192 29.796 14.0869 30.3163 15.4928 30.2674H32.7139C33.7758 30.2333 34.8078 30.6282 35.5847 31.3657C36.3616 32.1032 36.8203 33.1235 36.8606 34.204V37.1643H31.0738C30.9885 37.1611 30.9033 37.1751 30.8233 37.2055C30.7433 37.2358 30.6699 37.2819 30.6074 37.3411C30.5449 37.4004 30.4944 37.4716 30.459 37.5506C30.4235 37.6297 30.4037 37.7151 30.4007 37.802C30.3969 37.8334 30.3969 37.8651 30.4007 37.8965L30.5709 38.9908C30.6789 39.5988 30.9687 40.158 31.4007 40.592C31.8328 41.026 32.3859 41.3137 32.9847 41.4158V54.5246H32.4354C32.35 54.5214 32.2649 54.5354 32.1849 54.5658C32.1049 54.5961 32.0315 54.6422 31.969 54.7014C31.9065 54.7607 31.856 54.8319 31.8206 54.9109C31.7851 54.99 31.7653 55.0754 31.7623 55.1623V57.2408C31.7906 57.9982 32.1125 58.7134 32.6577 59.2299C33.2028 59.7463 33.9268 60.0219 34.6712 59.9964H40.0866C40.4587 60.0154 40.8307 59.9589 41.181 59.8302C41.5314 59.7015 41.8531 59.5032 42.1274 59.2467C42.4017 58.9903 42.6232 58.6809 42.7789 58.3365C42.9345 57.9921 43.0213 57.6196 43.0342 57.2408V55.1623C43.0322 55.0758 43.0133 54.9905 42.9787 54.9115C42.9441 54.8325 42.8944 54.7612 42.8325 54.7019C42.7706 54.6426 42.6978 54.5963 42.6182 54.5659C42.5386 54.5355 42.4538 54.5214 42.3689 54.5246H41.8351V41.4158C42.4333 41.3144 42.9859 41.0268 43.4168 40.5925C43.8477 40.1582 44.1357 39.5986 44.2411 38.9908L44.419 37.8886C44.4298 37.8036 44.4235 37.7172 44.4007 37.6346C44.3779 37.5521 44.339 37.4751 44.2863 37.4082C44.2336 37.3413 44.1681 37.2859 44.0939 37.2454C44.0197 37.2048 43.9382 37.1799 43.8542 37.1721H38.199V34.204C38.1465 32.7747 37.54 31.4248 36.5121 30.4496C35.4842 29.4743 34.1185 28.953 32.7139 28.9998H15.4928C14.4301 29.0339 13.3973 28.6393 12.6192 27.902C11.8411 27.1647 11.3807 26.1444 11.3384 25.0632V21.3077C11.3698 20.345 11.7376 19.4252 12.3757 18.7137C13.0139 18.0022 13.8805 17.5457 14.8197 17.4263V20.7251C14.8479 21.484 15.1709 22.2004 15.7178 22.7171C16.2647 23.2337 16.9907 23.5084 17.7363 23.4807H57.0989C57.8425 23.5062 58.5657 23.2304 59.1096 22.7137C59.6535 22.1971 59.9738 21.4819 60 20.7251V12.7575C59.9738 12.0008 59.6535 11.2856 59.1096 10.7689C58.5657 10.2523 57.8425 9.9764 57.0989 10.0019ZM41.719 57.2408C41.6953 57.6418 41.5219 58.0185 41.2343 58.2936C40.9466 58.5688 40.5665 58.7217 40.1717 58.721H34.7563C34.3615 58.7217 33.9814 58.5688 33.6938 58.2936C33.4061 58.0185 33.2327 57.6418 33.209 57.2408V55.8H41.719V57.2408ZM34.354 54.5324V41.4945H40.5431V54.5246L34.354 54.5324ZM42.9723 38.4318L42.9181 38.8019C42.8428 39.2075 42.6275 39.5723 42.3112 39.8307C41.9949 40.0891 41.5983 40.224 41.1929 40.2112H33.6268C33.2227 40.2221 32.828 40.0863 32.5133 39.8281C32.1986 39.5699 31.9845 39.2061 31.9093 38.8019L31.8474 38.4318H42.9723ZM58.6616 20.7251C58.6398 21.1276 58.4673 21.5062 58.1794 21.783C57.8916 22.0598 57.5104 22.2138 57.1143 22.2132H37.4253H17.7363C17.3403 22.2138 16.9591 22.0598 16.6713 21.783C16.3834 21.5062 16.2109 21.1276 16.1891 20.7251V12.7575C16.2109 12.3551 16.3834 11.9765 16.6713 11.6997C16.9591 11.4228 17.3403 11.2689 17.7363 11.2695L57.0989 11.2695C57.4949 11.2689 57.8761 11.4228 58.1639 11.6997C58.4518 11.9765 58.6244 12.3551 58.6461 12.7575L58.6616 20.7251Z" fill="#000310" stroke="black" stroke-width="0.5"/>
</svg>
