<svg width="69" height="60" viewBox="0 0 69 60" fill="none" xmlns="http://www.w3.org/2000/svg">
<path d="M33.0414 8.59804L13.6196 28.0198C11.8351 28.5257 10.4941 28.4447 8.91606 27.1094C7.21666 25.5314 7.90451 23.6196 8.46086 22.8609C15.0865 16.3364 28.702 2.86256 30.1586 1.16315C32.3436 -1.14318 34.9129 0.505646 35.9244 1.61835C46.1411 11.7338 66.9386 32.3897 68.3952 34.0891C69.7304 36.0313 68.5469 37.933 67.7883 38.6411C62.1742 44.4575 50.3694 56.5455 48.063 58.3663C45.7567 60.1871 43.5616 58.7203 42.7524 57.7594L32.8898 47.8967C30.8161 50.021 26.2743 54.6337 24.6962 56.0903C22.8754 57.5469 21.004 56.2926 20.2959 55.4834L0.722368 35.9099C0.115438 35.4041 -0.673571 33.9374 1.02583 32.1166C2.72524 30.2958 5.07203 30.9533 6.033 31.5096L22.7236 48.2002L28.0342 42.8896C26.9215 41.6757 24.6354 39.248 24.3926 39.248C24.0892 39.248 22.0012 39.7539 19.1183 37.1745C16.812 35.1109 17.4635 32.6223 18.1716 31.5096L22.1166 35.4547L25.7582 31.8131L21.8132 27.8681C22.6629 26.897 24.2409 27.0084 25.9463 27.8681C26.6299 28.2127 27.3118 28.7281 28.374 30.043C29.4527 31.3784 29.855 33.7856 29.5515 34.5443L33.0414 38.0341L36.9864 34.0891C37.7147 29.8406 34.6599 29.9923 33.0414 30.5993L31.5241 29.0819L37.8968 22.7092C38.2003 22.8609 38.959 23.3464 39.5659 24.0748C37.9879 28.2019 41.3361 28.3233 43.2075 27.8681C44.7248 29.1831 48.0932 32.2683 49.4285 34.0891C50.7637 35.9099 49.9848 39.9055 49.4285 41.6757L46.6973 44.4069C46.6467 44.3057 46.3028 43.891 45.3317 43.0413C46.2784 38.8435 43.3086 38.4388 41.5384 39.248L37.7451 43.0413L45.7869 51.0831L60.6567 36.2134L33.0414 8.59804Z" fill="#2BC48A"/>
<path d="M37.7812 43.0918L32.9258 47.9472L35.8087 50.8302L40.6641 45.9747L37.7812 43.0918Z" fill="#009C4E"/>
</svg>
