<svg xmlns="http://www.w3.org/2000/svg" viewBox="0 0 68.16 67.06"><defs><style>.cls-1{fill:#1f845b;}</style></defs><title>Recurso 9</title><g id="Capa_2" data-name="Capa 2"><g id="home"><path class="cls-1" d="M66.49,27.28h-11V22.19a5.93,5.93,0,0,0,5.15-5.7V10a1.43,1.43,0,0,0-1.48-1.38H49.73A1.44,1.44,0,0,0,48.24,10v6.45a5.93,5.93,0,0,0,5.15,5.7v5.09h-11a1.62,1.62,0,0,0-1.67,1.56V30a3.43,3.43,0,0,0,3.54,3.3h3.9v1.58a2.68,2.68,0,0,0,.74,1.84l-.58,1.48a1.89,1.89,0,0,0-1.22.08,1.69,1.69,0,0,0-.91.93l-2.78,7.14L41.8,41.94a12.55,12.55,0,0,0-7.53-7.38l-5.19-1.92V29a9.22,9.22,0,0,0,3-2.88,6.83,6.83,0,0,0,.59-2.05h1.55a3.52,3.52,0,0,0,3.63-3.39,3.19,3.19,0,0,0-.82-2.14c1.41-3.51,2-6,1.79-7.54a4.83,4.83,0,0,0-2.2-3.19,7.84,7.84,0,0,0-2.51-1.17C32,3.92,25.88.23,20,0a1.45,1.45,0,0,0-1.29.66,1.26,1.26,0,0,0,0,1.37c.27.4.47.73.64,1A19.72,19.72,0,0,0,8.9,3.1,1.38,1.38,0,0,0,8,4a1.26,1.26,0,0,0,.3,1.22c1,1.12,2.18,2.15,2.86,2.76a11.05,11.05,0,0,0-.39,10.7,3.17,3.17,0,0,0-.71,2,3.52,3.52,0,0,0,3.64,3.39h1.55a6.37,6.37,0,0,0,.59,2.05,9.12,9.12,0,0,0,3,2.88v3.35c-3.86.38-7.63,2.84-11.47,7.49a.94.94,0,0,0,.19,1.38,1.09,1.09,0,0,0,1.48-.18,26.78,26.78,0,0,1,4.38-4.32l1.44,7.73A5.44,5.44,0,0,1,13.61,49H12.17V46.23a1.06,1.06,0,0,0-2.11,0v2.82a3.86,3.86,0,0,0-3.84,3.72v3.82a4.38,4.38,0,0,1-4.11-4.22A4.22,4.22,0,0,1,2.88,50c.35-.53,2.55-4,3.37-5.17a.93.93,0,0,0-.32-1.35,1.09,1.09,0,0,0-1.45.3c-.84,1.22-1.6,2.4-2.26,3.43-.41.64-.79,1.24-1.14,1.75A6.15,6.15,0,0,0,0,52.37a6.42,6.42,0,0,0,6.22,6.19v1.16a1,1,0,0,0,1,1,1,1,0,0,0,1.06-1V52.77A1.83,1.83,0,0,1,10.22,51h11.2V65.09H18.33V60.3a1.06,1.06,0,0,0-2.11,0v4.79h-2.7v-1.9a1.05,1.05,0,0,0-2.1,0v1.9H8.33V64.3a1,1,0,0,0-1.06-1,1,1,0,0,0-1,1v1.51a1.3,1.3,0,0,0,1.34,1.25H36.12A1.72,1.72,0,0,0,37.9,65.4V59.59a6.74,6.74,0,0,0,5.84,3.25,7.41,7.41,0,0,0,1-.07,6.54,6.54,0,0,0,5.18-4l3.47-8.9a1,1,0,0,0-.63-1.26,1.09,1.09,0,0,0-1.36.59L48,58.1a4.47,4.47,0,0,1-3.54,2.73,4.6,4.6,0,0,1-5-2.68l-1.6-4v-8a1.05,1.05,0,0,0-2.1,0v4L35.37,50a5.49,5.49,0,0,1-2.31-5.51l1.42-7.66a10.38,10.38,0,0,1,5.32,5.76l2.47,6.77-.9,2.31A1,1,0,0,0,42,52.91a1.13,1.13,0,0,0,.36.06,1,1,0,0,0,1-.65l3.83-9.85h0l.87-2.25,6.09,2.05-1,2.62a1,1,0,0,0,.63,1.26,1.07,1.07,0,0,0,1.35-.59l1.14-2.92a1.5,1.5,0,0,0-.06-1.26,1.68,1.68,0,0,0-.88-.8l1.12-2.87h.79a4.11,4.11,0,0,0,4.25-4v-.43h3.16A3.42,3.42,0,0,0,68.16,30V28.84a1.62,1.62,0,0,0-1.67-1.56ZM58.54,10.62V14.3H50.35V10.62Zm-8.19,5.87v-.22h8.19v.22a4.1,4.1,0,0,1-8.19,0ZM34.26,22.13H32.92c.06-.91.09-1.89.09-2.85h1.25a1.43,1.43,0,1,1,0,2.85ZM10.6,4.68a18.8,18.8,0,0,1,9.62.65A1.51,1.51,0,0,0,21.73,5,1.25,1.25,0,0,0,22,3.58a13,13,0,0,0-.79-1.5c4.94.66,9.91,3.82,11.39,6a1,1,0,0,0,.69.44c1,.18,3.22,1.22,3.45,2.79.16,1.08-.39,3.3-1.51,6.17a3.66,3.66,0,0,0-1-.14H33c0-1.92-.16-3.61-.24-4.41a2.77,2.77,0,0,0-2.85-2.43h-3.2a1.1,1.1,0,0,0-.74.28,19.44,19.44,0,0,1-10.07,4.7,1,1,0,0,0-.89.93c0,.29,0,.61,0,.93H13.7a3.64,3.64,0,0,0-1.2.2,9.33,9.33,0,0,1,.87-9.12.94.94,0,0,0-.16-1.29S11.92,6,10.6,4.68Zm3.1,17.45a1.49,1.49,0,0,1-1.53-1.43,1.38,1.38,0,0,1,.54-1.08h0a1.61,1.61,0,0,1,1-.33h1.24c0,.94,0,1.92.09,2.85Zm4,3.11a6.87,6.87,0,0,1-.48-2.16s0-.09,0-.13a39.28,39.28,0,0,1-.16-4.63v0h0c0-.34,0-.69,0-1.05a21.66,21.66,0,0,0,10-4.8h2.78a.72.72,0,0,1,.75.63c.17,1.8.25,3.52.27,5.08a.76.76,0,0,0,0,.15.88.88,0,0,0,0,.16c0,3.5-.3,6.09-.68,6.78a8,8,0,0,1-2.78,2.42h0A8,8,0,0,1,24,28.92c-1.79,0-5.42-2.13-6.27-3.68ZM24,30.88a8,8,0,0,0,3-.74V33.3a1,1,0,0,0,.34.72l-.44,1.08a5.16,5.16,0,0,1-5.81,0l-.43-1A1,1,0,0,0,21,33.3V30.14a8,8,0,0,0,3,.74Zm1.81,6.82L24,42.09,22.15,37.7a7.19,7.19,0,0,0,1.83.24,7,7,0,0,0,1.81-.24Zm.86,14h1.14a2.1,2.1,0,0,1,2.16,2v.63a2.1,2.1,0,0,1-2.16,2H23.53V49.72a.13.13,0,0,1,.14-.13h1.86s.07,0,.07.06v1A1,1,0,0,0,26.65,51.67Zm7.44-.13,1.7,1.2v1.64h0v10.7H23.53V58.3h4.26a4.14,4.14,0,0,0,4.27-4v-.64a4.14,4.14,0,0,0-4.27-4h-.08v-.06a2.11,2.11,0,0,0-2.18-2H23.67A2.25,2.25,0,0,0,21.54,49H16.13a7.22,7.22,0,0,0,.85-4.9l-1.61-8.63a10.32,10.32,0,0,1,3.15-1.1l3.82,9.18a1.73,1.73,0,0,0,1.64,1h0a1.75,1.75,0,0,0,1.64-1l3.62-8.78L32.49,36,31,44.14a7.38,7.38,0,0,0,3.11,7.4ZM59.36,33.76a2.08,2.08,0,0,1-2.14,2H55.69a1,1,0,0,0-1,.64l-1.37,3.52-3-1,.82-2.1a1,1,0,0,0-.43-1.17.83.83,0,0,1-.43-.71V33.33h9.08ZM66.06,30a1.39,1.39,0,0,1-1.43,1.33H44.27A1.39,1.39,0,0,1,42.84,30v-.78H66.06Z"/></g></g></svg>