<svg width="50" height="50" viewBox="0 0 50 50" fill="none" xmlns="http://www.w3.org/2000/svg">
<path d="M48.7749 20.0131H40.7057V16.2792C41.7291 16.1439 42.6711 15.649 43.3632 14.883C44.0553 14.117 44.4524 13.1298 44.4836 12.0979V7.33703C44.4788 7.19924 44.447 7.06374 44.3898 6.93828C44.3327 6.81281 44.2514 6.69984 44.1506 6.60582C44.0497 6.5118 43.9314 6.43858 43.8022 6.39034C43.6731 6.34211 43.5357 6.3198 43.3979 6.3247H36.4803C36.2014 6.31477 35.9298 6.41568 35.725 6.60537C35.5202 6.79506 35.3988 7.05811 35.3873 7.33703V12.0685C35.4185 13.1004 35.8156 14.0876 36.5077 14.8536C37.1998 15.6197 38.1417 16.1146 39.1652 16.2499V19.9837H31.0959C30.782 19.9738 30.4768 20.0887 30.2473 20.3031C30.0177 20.5175 29.8824 20.8142 29.8709 21.1281V22.0084C29.8958 22.6732 30.1829 23.3012 30.6696 23.7548C31.1562 24.2085 31.8028 24.451 32.4677 24.4292H35.3286V25.5882C35.3303 26.091 35.5246 26.574 35.8715 26.938L35.446 28.0236C35.1494 27.9435 34.8346 27.9642 34.5511 28.0823C34.4002 28.1463 34.2636 28.2395 34.149 28.3566C34.0344 28.4737 33.9442 28.6124 33.8835 28.7645L31.8442 34.0022L30.6631 30.7672C30.1902 29.5181 29.4512 28.387 28.4974 27.4521C27.5435 26.5173 26.3977 25.8012 25.1394 25.3535L21.3322 23.945V21.2748C22.217 20.7474 22.9698 20.0248 23.5329 19.1621C23.755 18.6866 23.9011 18.1792 23.9657 17.6583H25.1027C25.7852 17.6801 26.4485 17.4307 26.9475 16.9647C27.4465 16.4986 27.7407 15.8539 27.7655 15.1715C27.7664 14.5918 27.5521 14.0324 27.164 13.6017C28.1984 11.0269 28.6312 9.20029 28.4771 8.07059C28.3842 7.59026 28.1929 7.13436 27.9151 6.73161C27.6374 6.32887 27.2792 5.98801 26.8633 5.73051C26.3053 5.33743 25.6818 5.04681 25.022 4.87224C23.4742 2.87693 18.9847 0.170067 14.6714 0.00134593C14.485 -0.00803626 14.2995 0.0317599 14.1334 0.11674C13.9673 0.201721 13.8265 0.328896 13.7251 0.485501C13.6281 0.635165 13.5765 0.809677 13.5765 0.987995C13.5765 1.16631 13.6281 1.34082 13.7251 1.49049C13.9231 1.78392 14.0698 2.02599 14.1945 2.22406C11.6812 1.55149 9.0329 1.56923 6.52876 2.27541C6.3738 2.32438 6.2329 2.40994 6.11799 2.52485C6.00308 2.63977 5.91752 2.78066 5.86854 2.93562C5.82373 3.09101 5.82046 3.25544 5.85908 3.41248C5.8977 3.56952 5.97684 3.71369 6.08861 3.83057C6.82218 4.65217 7.68779 5.40774 8.18662 5.85522C7.47764 7.03208 7.07943 8.36984 7.02938 9.74284C6.97934 11.1158 7.27911 12.479 7.90053 13.7044C7.56351 14.1191 7.37958 14.6372 7.37969 15.1715C7.40455 15.8552 7.69969 16.5011 8.20033 16.9673C8.70097 17.4336 9.36617 17.6821 10.0499 17.6583H11.1869C11.2456 18.1804 11.3919 18.6888 11.6197 19.1621C12.1808 20.0265 12.9339 20.7495 13.8204 21.2748V23.7323C10.9888 24.011 8.2233 25.8156 5.4064 29.2267C5.34456 29.3005 5.29885 29.3864 5.2722 29.4789C5.24556 29.5713 5.23858 29.6684 5.25171 29.7638C5.26484 29.8591 5.29779 29.9507 5.34843 30.0325C5.39908 30.1144 5.4663 30.1847 5.54577 30.239C5.70966 30.359 5.91308 30.4122 6.11472 30.3876C6.31636 30.3631 6.50111 30.2628 6.63145 30.107C7.57717 28.9307 8.65529 27.8674 9.84448 26.938L10.9008 32.6084C11.0084 33.1979 10.9818 33.8041 10.8231 34.3819C10.6643 34.9597 10.3775 35.4944 9.98386 35.9462H8.92752V33.9142C8.90878 33.7219 8.81915 33.5435 8.67609 33.4137C8.53303 33.284 8.34678 33.2121 8.15361 33.2121C7.96044 33.2121 7.77419 33.284 7.63113 33.4137C7.48806 33.5435 7.39843 33.7219 7.37969 33.9142V35.9829C6.64871 35.9862 5.94733 36.272 5.42231 36.7807C4.89728 37.2893 4.5893 37.9812 4.56279 38.7117V41.514C3.76532 41.4652 3.01462 41.1211 2.45717 40.5487C1.89972 39.9763 1.57552 39.2168 1.54783 38.4183C1.55681 37.7951 1.75368 37.1892 2.11268 36.6797C2.36942 36.291 3.98327 33.7455 4.5848 32.8872C4.63978 32.8084 4.67749 32.7189 4.69547 32.6245C4.71345 32.5301 4.71128 32.433 4.68912 32.3395C4.66696 32.246 4.6253 32.1582 4.56687 32.082C4.50844 32.0057 4.43456 31.9426 4.35006 31.8969C4.17763 31.7929 3.97231 31.7578 3.77512 31.7986C3.57793 31.8394 3.4034 31.9531 3.28638 32.117C2.67019 33.0119 2.11268 33.8775 1.62852 34.6331C1.32776 35.1026 1.049 35.5427 0.792253 35.9168C0.286164 36.6538 0.0104138 37.5244 0 38.4183C0.0422671 39.6129 0.537214 40.7467 1.3845 41.5899C2.23178 42.4331 3.368 42.9226 4.56279 42.9591V43.81C4.56279 44.0046 4.64008 44.1912 4.77765 44.3287C4.91522 44.4663 5.10181 44.5436 5.29636 44.5436C5.39633 44.5496 5.49648 44.5351 5.59062 44.5009C5.68476 44.4668 5.77092 44.4137 5.84377 44.3449C5.91662 44.2762 5.97462 44.1933 6.01421 44.1013C6.05379 44.0093 6.07412 43.9102 6.07394 43.81V38.7117C6.0795 38.5322 6.12104 38.3556 6.19611 38.1924C6.27117 38.0291 6.37823 37.8827 6.51093 37.7616C6.64364 37.6405 6.7993 37.5473 6.96869 37.4875C7.13808 37.4277 7.31775 37.4024 7.49707 37.4133H15.713V47.7493H13.4463V44.2355C13.4276 44.0432 13.3379 43.8648 13.1949 43.7351C13.0518 43.6053 12.8656 43.5334 12.6724 43.5334C12.4792 43.5334 12.293 43.6053 12.1499 43.7351C12.0068 43.8648 11.9172 44.0432 11.8985 44.2355V47.7493H9.91784V46.3555C9.91784 46.1512 9.83669 45.9553 9.69224 45.8109C9.54779 45.6664 9.35188 45.5853 9.14759 45.5853C8.94331 45.5853 8.7474 45.6664 8.60295 45.8109C8.4585 45.9553 8.37735 46.1512 8.37735 46.3555V47.7493H6.11062V47.1698C6.1108 47.0696 6.09047 46.9705 6.05089 46.8785C6.0113 46.7865 5.95329 46.7036 5.88044 46.6349C5.80759 46.5661 5.72144 46.5131 5.6273 46.4789C5.53315 46.4447 5.43301 46.4302 5.33304 46.4362C5.13848 46.4362 4.9519 46.5135 4.81433 46.6511C4.67676 46.7886 4.59947 46.9752 4.59947 47.1698L4.59947 48.2775C4.60903 48.5291 4.71776 48.7668 4.90192 48.9386C5.08609 49.1104 5.33073 49.2023 5.58245 49.1944H26.4965C26.6622 49.2003 26.8274 49.1735 26.9828 49.1154C27.1381 49.0574 27.2805 48.9693 27.4018 48.8562C27.523 48.7431 27.6208 48.6072 27.6895 48.4563C27.7583 48.3054 27.7965 48.1424 27.8022 47.9767V43.7147C28.2474 44.4502 28.8766 45.057 29.6279 45.4751C30.3792 45.8932 31.2265 46.1082 32.0863 46.0988C32.3317 46.0982 32.5768 46.0811 32.8198 46.0474C33.6551 45.9352 34.4461 45.6049 35.1132 45.0898C35.7803 44.5747 36.2999 43.8929 36.6197 43.1131L39.1652 36.5844C39.2257 36.4005 39.2111 36.2002 39.1245 36.027C39.0379 35.8539 38.8864 35.722 38.703 35.6601C38.5128 35.5931 38.3043 35.6005 38.1193 35.6808C37.9343 35.761 37.7865 35.9082 37.7054 36.0929L35.2113 42.6217C34.9923 43.154 34.637 43.6194 34.1812 43.9709C33.7253 44.3225 33.185 44.5478 32.6144 44.6243C31.8713 44.7537 31.1062 44.6304 30.4414 44.274C29.7765 43.9177 29.2503 43.3488 28.9466 42.6583L27.7729 39.7241V33.8555C27.7729 33.6512 27.6917 33.4553 27.5473 33.3109C27.4028 33.1664 27.2069 33.0853 27.0026 33.0853C26.7984 33.0853 26.6024 33.1664 26.458 33.3109C26.3135 33.4553 26.2324 33.6512 26.2324 33.8555V36.7898L25.9463 36.6797C25.3037 36.2416 24.8018 35.6267 24.501 34.9095C24.2003 34.1922 24.1138 33.4032 24.2518 32.6378L25.2934 27.0187C27.0967 27.8627 28.4976 29.3795 29.196 31.244L31.0079 36.2103L30.3477 37.9048C30.2916 38.0868 30.3085 38.2834 30.3947 38.4531C30.481 38.6229 30.6298 38.7524 30.8099 38.8144C30.8949 38.8433 30.9841 38.8582 31.0739 38.8584C31.2312 38.8683 31.3875 38.8272 31.5196 38.7414C31.6517 38.6555 31.7527 38.5294 31.8075 38.3816L34.6171 31.156L35.2553 29.5055L39.7227 31.0093L38.9891 32.9312C38.9286 33.1151 38.9433 33.3154 39.0298 33.4886C39.1164 33.6617 39.2679 33.7936 39.4513 33.8555C39.6404 33.924 39.8485 33.9172 40.0328 33.8367C40.2171 33.7562 40.3634 33.608 40.4416 33.4227L41.2779 31.2807C41.3381 31.1327 41.3653 30.9733 41.3577 30.8137C41.3501 30.6541 41.3079 30.498 41.2339 30.3564C41.0974 30.0886 40.8679 29.8799 40.5883 29.7695L41.4099 27.6642H41.9894C42.3872 27.6779 42.7838 27.6127 43.1562 27.4723C43.5287 27.332 43.8697 27.1193 44.1595 26.8465C44.4494 26.5737 44.6823 26.2462 44.8449 25.883C45.0076 25.5197 45.0967 25.1278 45.1071 24.7299V24.4145H47.4252C48.0845 24.4324 48.7243 24.19 49.2062 23.7396C49.6881 23.2893 49.9732 22.6674 50 22.0084V21.1574C49.9885 20.8435 49.8532 20.5469 49.6236 20.3324C49.3941 20.118 49.0889 20.0032 48.7749 20.0131ZM42.9431 7.79184V10.4914H36.9352V7.79184H42.9431ZM36.9352 12.0979V11.9365H42.9431V12.0979C42.905 12.8689 42.5718 13.5958 42.0127 14.128C41.4535 14.6602 40.7111 14.957 39.9391 14.957C39.1671 14.957 38.4247 14.6602 37.8656 14.128C37.3064 13.5958 36.9733 12.8689 36.9352 12.0979ZM25.132 16.2352H24.1491C24.1931 15.5677 24.2151 14.8488 24.2151 14.1445H25.132C25.2767 14.1324 25.4223 14.1504 25.5596 14.1975C25.6969 14.2445 25.8229 14.3195 25.9298 14.4178C26.0366 14.516 26.1219 14.6354 26.1802 14.7683C26.2386 14.9012 26.2687 15.0447 26.2687 15.1899C26.2687 15.335 26.2386 15.4786 26.1802 15.6115C26.1219 15.7444 26.0366 15.8637 25.9298 15.962C25.8229 16.0602 25.6969 16.1353 25.5596 16.1823C25.4223 16.2293 25.2767 16.2473 25.132 16.2352ZM7.77582 3.43444C10.1296 2.97721 12.5619 3.14156 14.8327 3.91126C15.0221 3.97445 15.2249 3.98531 15.4199 3.9427C15.6149 3.90008 15.7947 3.80558 15.9404 3.66919C16.0773 3.53745 16.1698 3.36648 16.2053 3.17988C16.2408 2.99329 16.2174 2.80028 16.1385 2.62752C15.9695 2.24852 15.7759 1.88095 15.559 1.52717C19.1828 2.01132 22.8286 4.3294 23.9143 5.92858C23.9712 6.01503 24.0456 6.08848 24.1329 6.14411C24.2201 6.19974 24.3181 6.23628 24.4205 6.25135C25.154 6.38339 26.7826 7.1463 26.9513 8.298C27.0687 9.09025 26.6652 10.7188 25.8436 12.8241C25.605 12.7562 25.3581 12.7216 25.11 12.7214H24.2077C24.2077 11.313 24.0904 10.0732 24.0317 9.48638C23.9696 8.98149 23.7204 8.51826 23.3333 8.18821C22.9462 7.85817 22.4494 7.68531 21.941 7.70381H19.5936C19.3934 7.70258 19.2 7.77579 19.0508 7.90921C16.9764 9.75277 14.4091 10.951 11.6637 11.357C11.492 11.3756 11.3324 11.4543 11.2129 11.5791C11.0935 11.7039 11.0219 11.8668 11.0109 12.0392C11.0109 12.2519 11.0109 12.4867 11.0109 12.7214H10.0499C9.7503 12.7206 9.45272 12.7702 9.1696 12.8681C8.69161 11.7923 8.49922 10.6113 8.61101 9.43933C8.72281 8.26738 9.13502 7.14408 9.8078 6.17799C9.9139 6.03551 9.96092 5.85757 9.93905 5.68128C9.91719 5.50499 9.82813 5.34393 9.69043 5.23169C9.69043 5.23169 8.74413 4.40275 7.77582 3.43444ZM10.0499 16.2352C9.76243 16.2432 9.48342 16.1375 9.27333 15.9411C9.06324 15.7448 8.93899 15.4735 8.92752 15.1862C8.92919 15.0328 8.96571 14.8817 9.03434 14.7445C9.10296 14.6072 9.20189 14.4873 9.32365 14.394C9.53412 14.2333 9.79247 14.1481 10.0572 14.1519H10.9668C10.9668 14.8414 10.9668 15.5603 11.0329 16.2425L10.0499 16.2352ZM12.9842 18.5166C12.7819 18.0109 12.663 17.4758 12.632 16.9321C12.632 16.9321 12.632 16.8661 12.632 16.8367C12.5261 15.7079 12.4869 14.5738 12.5147 13.4403C12.5147 13.1909 12.5147 12.9342 12.5147 12.6701C15.2241 12.153 17.7522 10.9395 19.8503 9.14894H21.8897C22.0228 9.14236 22.1534 9.18634 22.2555 9.27204C22.3575 9.35775 22.4234 9.47886 22.4398 9.61109C22.5646 10.9315 22.6232 12.1932 22.6379 13.3376C22.6343 13.3742 22.6343 13.4111 22.6379 13.4476C22.6343 13.4867 22.6343 13.526 22.6379 13.565C22.6379 16.1325 22.4178 18.0324 22.1391 18.5386C21.6067 19.281 20.9084 19.8889 20.0998 20.3138C19.3481 20.801 18.495 21.1096 17.6056 21.2161C16.2925 21.2161 13.6297 19.6536 13.0062 18.5166H12.9842ZM17.6056 22.6539C18.3675 22.6177 19.115 22.4333 19.8063 22.1111V24.4292C19.8095 24.5296 19.8333 24.6283 19.8762 24.7191C19.9191 24.81 19.9802 24.8911 20.0557 24.9573L19.733 25.7496C19.1047 26.1776 18.3621 26.4064 17.602 26.4064C16.8418 26.4064 16.0992 26.1776 15.4709 25.7496L15.1555 25.016C15.2386 24.9433 15.3041 24.8527 15.3473 24.7511C15.3905 24.6495 15.4102 24.5394 15.4049 24.4292V22.1111C16.0962 22.4333 16.8438 22.6177 17.6056 22.6539ZM18.9334 27.6569L17.6056 30.8772L16.2485 27.6569C16.6866 27.773 17.1378 27.8321 17.591 27.8329C18.0393 27.8325 18.4857 27.7733 18.9187 27.6569H18.9334ZM19.5643 37.9268H20.4005C20.8042 37.9148 21.1965 38.0619 21.4929 38.3363C21.7892 38.6107 21.966 38.9905 21.985 39.394V39.8561C21.966 40.2595 21.7892 40.6394 21.4929 40.9138C21.1965 41.1882 20.8042 41.3352 20.4005 41.3232H17.2609V36.4743C17.2608 36.4612 17.2635 36.4482 17.2687 36.4361C17.274 36.424 17.2817 36.4131 17.2913 36.4042C17.301 36.3952 17.3124 36.3884 17.3248 36.384C17.3372 36.3797 17.3504 36.378 17.3636 36.379H18.728C18.728 36.379 18.7793 36.379 18.7793 36.423V37.1566C18.7772 37.2573 18.7958 37.3574 18.8341 37.4506C18.8723 37.5438 18.9293 37.6281 19.0016 37.6983C19.0739 37.7685 19.1598 37.8231 19.2541 37.8586C19.3484 37.8941 19.449 37.9099 19.5496 37.9048L19.5643 37.9268ZM25.022 37.8315L26.2691 38.7117V39.9148V47.764H17.2609V42.7684H20.3859C21.1902 42.7941 21.9718 42.4995 22.5592 41.9493C23.1465 41.3992 23.4914 40.6384 23.5182 39.8341V39.3646C23.4914 38.5603 23.1465 37.7995 22.5592 37.2494C21.9718 36.6992 21.1902 36.4046 20.3859 36.4303H20.3272V36.3863C20.3062 35.9809 20.1269 35.6 19.8278 35.3255C19.5287 35.0511 19.1337 34.9052 18.728 34.9192H17.3636C17.0298 34.9123 16.7018 35.0067 16.4229 35.1901C16.1439 35.3734 15.9271 35.6371 15.8011 35.9462H11.8325C12.4594 34.8597 12.6804 33.5859 12.456 32.3517L11.2749 26.021C11.9963 25.6285 12.7768 25.3559 13.5857 25.2141L16.3879 31.9482C16.4935 32.1757 16.6642 32.3668 16.8783 32.4973C17.0924 32.6279 17.3404 32.6921 17.591 32.6818C17.8412 32.6902 18.0884 32.6252 18.3021 32.4948C18.5159 32.3645 18.6869 32.1745 18.794 31.9482L21.4495 25.5075L23.8336 26.4098L22.7406 32.381C22.5565 33.4095 22.6739 34.4693 23.0787 35.4325C23.4836 36.3958 24.1585 37.2213 25.022 37.8094V37.8315ZM43.5446 24.7666C43.5293 25.1687 43.3557 25.5486 43.0617 25.8234C42.7677 26.0981 42.377 26.2456 41.9748 26.2337H40.8524C40.696 26.2234 40.5404 26.2633 40.4084 26.3478C40.2764 26.4323 40.1749 26.5569 40.1188 26.7032L39.1138 29.2854L36.9131 28.5518L37.5147 27.0113C37.567 26.8537 37.5643 26.6829 37.507 26.527C37.4497 26.3711 37.3412 26.2393 37.1992 26.153C37.1056 26.1016 37.0271 26.0263 36.9717 25.9349C36.9164 25.8435 36.886 25.7391 36.8838 25.6322V24.4512H43.5446V24.7666ZM48.4595 22.0084C48.448 22.2763 48.3315 22.5289 48.1352 22.7115C47.9389 22.8941 47.6785 22.992 47.4105 22.984H32.4751C32.207 22.992 31.9467 22.8941 31.7504 22.7115C31.554 22.5289 31.4375 22.2763 31.4261 22.0084V21.4362H48.4595V22.0084Z" fill="#000310"/>
</svg>
